<?xml version="1.0" encoding="UTF-8"?>
<svg xmlns="http://www.w3.org/2000/svg" version="1.1" viewBox="0 0 1417.32 1417.32">
  <defs>
    <style>
      .cls-1 {
        fill: #0f4c59;
      }

      .cls-2 {
        fill: #1d1d1b;
      }

      .cls-3 {
        fill: #fff;
      }

      .cls-4, .cls-5 {
        fill: none;
      }

      .cls-6 {
        fill: #ecf7fe;
      }

      .cls-7 {
        fill: #d4edfc;
      }

      .cls-8 {
        fill: #3a91b5;
      }

      .cls-9 {
        fill: #196374;
      }

      .cls-10 {
        display: none;
      }

      .cls-11 {
        fill: #82a0b9;
      }

      .cls-5 {
        stroke: #1d1d1b;
        stroke-miterlimit: 10;
      }
    </style>
  </defs>
  <!-- Generator: Adobe Illustrator 28.7.1, SVG Export Plug-In . SVG Version: 1.2.0 Build 142)  -->
  <g>
    <g id="Vrstva_1">
      <path class="cls-11" d="M0,0v708.83h1417.32V0H0Z"/>
      <path class="cls-6" d="M272.28,0l23.97,56.25,10.86,25.49s13.8-4.83,32.98-12.88c6.47-2.71,13.55-5.78,20.93-9.16,1.93-.89,3.88-1.79,5.84-2.72,1.16-.54,2.33-1.1,3.5-1.66,3.12-1.49,6.27-3.04,9.42-4.62,6.33-3.18,12.67-6.53,18.84-10.02C420.5,28.31,440.28,14.22,449.75,0h-177.47Z"/>
      <path class="cls-6" d="M1201.28,0c-6.64,77.7-33.7,288.32-133.04,315.27-122.16,33.15-825.63,109.65-809.13-244.34,0,0,14.72-7.23,37.14-14.68,9.91-3.29,21.31-6.62,33.62-9.39,7.25-1.64,14.82-3.08,22.58-4.19,2-.29,4.01-.56,6.03-.8,2.47-.3,4.96-.56,7.46-.78,5.1-.46,10.25-.75,15.42-.85,5.75-.11,11.52.02,17.26.44,7.58.55,15.1,1.6,22.48,3.26,73.5,16.5,49.35,53.99,49.35,53.99,0,0,44.72,9.87,42.31,40.82,6.75-25.15,30.22-87.34,95.45-75.32,75.87,13.98,84.92,22.75,85.8,23.88-1.65-2.56-29.02-46.37,39.99-47.11,53.54-.57,70.85,6.09,76.14,9.42-7.42-6.43-30.92-28.89-24.34-49.62h415.48Z"/>
      <g>
        <path class="cls-1" d="M380.49,85.41c.78-2.14,33.96-56.63,61.85-63.41,27.89-6.78,62.31-2.23,85.73,22.53,23.42,24.76,33.64,65.16,18.35,94.15s-41.82,53.49-55.09,57.24-21.63-1.4-21.63-1.4l-89.21-109.11Z"/>
        <path class="cls-3" d="M392.69,86.47s24.75-36.01,40.44-43.85c15.69-7.84,38.41-9.73,41.81-2.44s-12.75,31.67-17.29,39.46c-4.53,7.79-10.35,9.79-14.41,13.63s-6.39,13.97,8.23,29.43c14.63,15.46,36.02,22.53,39.38,17.95,3.37-4.58.78-6.57,10.88-18.11,10.1-11.53,19.55-26.68,31.08-21.53,11.53,5.14,12.92,7.35,2.77,35.85-10.15,28.5-31.9,55.38-49.75,55.47-17.85.09-12.95,5.56-41.72-10.8-28.78-16.36-72.08-63.61-51.42-95.06Z"/>
        <path class="cls-11" d="M460.62,102.03c8.24-.78,14.86-5.02,20.53-1.25,5.67,3.77,5.31,25.6,3.19,26.32s-13.27-.7-19.23-5.53c-5.97-4.83-11.06-18.91-4.48-19.54Z"/>
        <path class="cls-9" d="M463.79,104.64s1.46,5.25,7.34,10.72c5.88,5.48,8.92,6.47,8.92,6.47,0,0-19.17-3.24-16.26-17.19Z"/>
        <path class="cls-7" d="M432.54,62.5s7.3-8.86,13.43-2.9c6.13,5.96,8.84,11.94,3.22,17.39-5.62,5.45-11.77,5.88-15.92,2.95-4.15-2.93-5.33-13.65-.73-17.44Z"/>
        <path class="cls-7" d="M506.96,130.29s6.54-8.63,12.49-5.44,8.09,10.52,1.8,18.17c-6.29,7.64-12.39,7.49-16.2,5.24s-5.22-12.3,1.91-17.96Z"/>
        <path class="cls-1" d="M435.31,65.27c.09-.07,3.51-5.28,8.36-1.54,4.85,3.74,4.49,7.51,2.15,10.22s-19.87-1.98-10.51-8.68Z"/>
        <path class="cls-1" d="M509.37,132.91c1.13-1.18,7.18-3.37,9.98.11s-.77,9.55-5.4,10.87c-4.63,1.32-9.54-5.79-4.58-10.98Z"/>
        <path class="cls-6" d="M438.44,67.21s.03,2.65,2.38,2.52c2.35-.13-2.38-2.52-2.38-2.52Z"/>
        <path class="cls-6" d="M513.45,134.93l3.59,3.79s-5.11,0-3.59-3.79Z"/>
      </g>
      <path class="cls-9" d="M1417.32,0v723.75H0V0h339.86c3.18,6.68,6.19,15.62,8.14,27.41.81,4.91,2.33,10.01,4.45,15.26,2.22,5.52,5.11,11.21,8.57,17.03,17.47,29.4,49.23,62.01,80.98,92.52,44,42.27,8,14.09,78,56.36s56,48.31,142,46.3c30.55-.72,68.93-4.74,106.71-11.25h0c32.86-5.66,65.26-13.2,91.66-22.09,0-.01.01-.01.01-.01h.01c28.65-9.67,50.22-20.92,57.6-33.08,2.33-3.84,3.72-7.13,4.43-9.99h0c5.92-24.11-36.78-17.98,27.57-59.88,27.04-17.61,57.18-41.26,84.28-63.94,24.94-20.87,47.31-40.9,62.31-54.64h320.73Z"/>
      <path class="cls-11" d="M515.38,1145.01h0c-8.26-47.3-35.26-225.09-46.48-253.72-10.38-26.49,12.05-128.07,18.2-154.61.6-1.79,1.1-3.93,1.5-6.38,0,0,0-.01,0-.01h0c9.12-55.41-29.58-273.03-30.16-322.95-.67-57.33-8.67-118-52.67-146s-108.67-16-146.67,5.92c-38,21.92-144,168.75-168.67,214.08-24.67,45.33-40.67,124-48.67,154.67-8,30.67-.3,114.44-.3,114.44,0,0,11.3,281.34,292.21,463.05,0,0,5.6,2.41,14.61,6.11,31.86,13.09,106.36,42.31,126.42,38.07,18.63-3.94,33.18-52.59,38.65-85.4.9-5.43,1.56-10.43,1.95-14.72.5-5.58.54-9.96.07-12.53Z"/>
      <path class="cls-7" d="M1146.63,0c-9.04,12.85-19.79,27.79-26.4,35.75-7.41,8.92-108.93,80.76-197.8,142.7h0c-21.99,15.34-43.21,30.06-62.03,43.08h-.01s-.01,0-.01.01c-39.5,27.31-68.46,47.1-71.9,49.14-11.71,6.94-87.29,15.55-110.43,15.6-23.15.04-143.35-34.24-143.35-34.24,0,0-48.48-17.07-66.15-32.24-17.68-15.18-46.35-37.06-77.85-62.56-26.52-21.47-45.32-72.72-50.61-88.38-.99-2.94-1.5-4.62-1.5-4.62l-8.72-17.38L306.37,0h45.89c4.11,12.05,9.43,27.82,13.68,41.09,1.69,5.27,3.21,10.14,4.42,14.23.3,1.02.59,2,.85,2.92.34,1.21.95,2.59,1.78,4.13h0c14.68,26.99,100.73,101.27,109.89,108.37,9.68,7.5,62.98,53.73,111.43,62.73,48.44,9,118.88,3.27,164.26-2.73s185.61-138,235.5-159.28C1025.75,57.95,1062.63,23.41,1085.33,0h61.3Z"/>
      <g>
        <path class="cls-11" d="M1417.32,34.24v349.35c-24.14-1.81-57.28-4.33-91.7-7.04-.02,0-.05-.01-.07-.01-.04,0-.09,0-.13,0-50.36-3.97-103.39-8.36-134.85-11.56-3.35-.35-6.46-.68-9.3-.99-3.39-.38-6.39-.73-8.94-1.06-.03,0-.06-.01-.08-.01-3.39-.43-5.99-.82-7.69-1.16-3.13-.63-5.54-5.59-7.35-13.89-.09-.38-.17-.77-.26-1.17-.02-.14-.05-.29-.08-.44-3.27-16.36-4.48-44.25-4.44-77.05,0-1.09.01-2.19.01-3.29.01-2.76.03-5.56.06-8.39.97-100.69,12.15-238,12.15-238,0,0,146.9-5.26,209.64,6.2,18.01,3.29,32.1,6.13,43.03,8.52Z"/>
        <g>
          <path class="cls-11" d="M1164.56,361.75s-234.94,4.53-251.04-2.01c0,0-18.62,5.03-25.67,0,0,0-14.6-1.48-17.61,3.54s-24.66,23.64-27.18,24.14c0,0-67.44,1.01-67.44-5.54s1.01-20.13-4.53-30.2c-5.54-10.07-19.63-26.17-19.12-43.79.5-17.61-.5-56.37,42.28-93.61,42.78-37.24,162.56-109.71,176.65-120.79s61.4-39.76,81.53-47.31c20.13-7.55,98.14-24.66,105.18-25.67l7.05-1.01-.09,342.23Z"/>
          <path class="cls-8" d="M1091.7,310.97s14.51,13.1,26.68,16.38c12.17,3.28,53.35,27.14,62.24,32.76,8.89,5.62-18.71,1.69-18.71,1.69,0,0-34.64-19.26-46.8-24.75-12.17-5.49-23.4-26.08-23.4-26.08Z"/>
          <path class="cls-8" d="M1129.14,268.85s1.99-6.08,18.72-3.74c16.73,2.34,29.48,10.76,29.48,10.76,0,0-7.96-15.91-24.1-18.25-16.15-2.34-25.04,6.55-24.1,11.23Z"/>
          <path class="cls-8" d="M1126.8,257.23s1.76-7.57,10.24-8.04c8.48-.47,12.22,0,12.22,0,0,0-11.23.34-14.98,3.92-3.74,3.57-7.49,4.12-7.49,4.12Z"/>
          <path class="cls-8" d="M900.75,355.43c.94-2.34,8.89-27.61,3.28-60.37,0,0-11.23-28.67-28.55-41.95,0,0,22.46,31.18,24.8,47.56,2.34,16.38.47,54.76.47,54.76Z"/>
          <path class="cls-8" d="M872.67,266.55s16.03,20.08,18.08,33.19c2.05,13.1,2.05,15.91,2.05,15.91,0,0-3.28-21.91-20.12-49.1Z"/>
          <path class="cls-8" d="M927.9,295.52s7.96,19.66,4.68,35.57c-3.28,15.91-11.7,24.34-11.7,24.34,0,0,20.59-11.88,17.32-34.96-3.28-23.07-10.3-24.95-10.3-24.95Z"/>
          <path class="cls-8" d="M898.41,248.98s10.3,12.38,13.1,22.2,2.81,7.96,2.81,7.96c0,0,3.28-14.92-15.91-30.16Z"/>
          <path class="cls-8" d="M789.37,358.28s-13.47,14.95-13.76,23.6c-.28,8.65,2.06,19.88,20.78,20.35,0,0-.94-1.4,5.62,0s19.66,5.15,31.82-2.81c12.17-7.96,13.33-17.91,7.96-27.61-6.81-12.29-41.08-30.63-52.42-13.52Z"/>
          <path class="cls-1" d="M799.2,376.49s0,2.81,4.68,0c4.68-2.81,6.29-5.15,6.29-5.15,0,0,1.2,4.21,4.47,0,3.28-4.21,7.96-8.21,0-15.91-5.8-5.62-20.59-1.1-22.93,3.74-2.34,4.85-1.22,19.29.47,15.91,2.81-5.62,3.74-.47,3.74-.47l3.28,1.87Z"/>
          <path class="cls-1" d="M803.65,373.21s.24,13.57,0,16.85.64,7.02,6.52,7.49l5.88.47s-11.23,3.28-14.98-2.81c0,0-7.02,6.44-10.3,3.69l-3.28-2.75s11.23,5.62,11.7-5.15c.47-10.76.47-17.78.47-17.78h3.98Z"/>
          <path class="cls-1" d="M819.02,375.08s8.07,2.58,17.05,7.26c8.01,4.18,16.74,10.03,21.15,17.23l9.36,15.28s-15.44-27.61-41.18-34.63l-6.38-5.15Z"/>
          <path class="cls-1" d="M784.69,373.21s-18.25,9.83-23.87,21.76c-5.62,11.93,0,19.89,0,19.89,0,0-1.68-16.84,6.55-23.87s17.32-17.78,17.32-17.78Z"/>
          <path class="cls-1" d="M819.02,384.44s19.19,10.31,23.78,19.9,4.6,16.61,4.6,16.61c0,0,.14-16.82-28.38-36.5Z"/>
          <path class="cls-1" d="M787.5,382.1s-14.2,13.57-15.99,25.27c-1.79,11.7,0,15.44,0,15.44,0,0,1.54-20.67,9.91-28.78l6.08-11.93Z"/>
          <path class="cls-8" d="M828.92,322.32c-.35-1.4-7.37-19.89,5.97-26.79s33.46-6.9,40.6,20.12c0,0-3.56,26.32-24.36,24.92-20.8-1.4-22.2-18.25-22.2-18.25Z"/>
          <path class="cls-8" d="M782.93,323.37c-.56-2.84-3.51-24.92-14.74-24.92s-13.98,23.23-13.31,24.92,5.17,23.17,13.98,22.81,14.59-20.18,14.07-22.81Z"/>
          <path class="cls-1" d="M836.29,317.75s3.69-13.34,14.83-11.58,13.95,9.48,13.95,16.15-5.62,10.18-14.39,11.23c-8.77,1.05-16.48-11.08-14.39-15.79Z"/>
          <path class="cls-1" d="M760.82,312.84c1.1-.18,14.12-3,14.77,12.64s-13.5,11.44-14.77,11.57-5.62-5.24-4.21-12.09,2.07-11.78,4.21-12.12Z"/>
          <path class="cls-6" d="M842.81,316.14s1.91,6.18,7.7,6.17,8.25-2.51,8.25-2.51c0,0-5.41.55-7.97-.58s-7.97-3.09-7.97-3.09Z"/>
          <path class="cls-6" d="M760.47,325.47s5.58,3.51,8.41,2.11,2.63-5.26,2.63-5.26c0,0-3.54,3.14-5.53,2.8s-5.5.36-5.5.36Z"/>
          <path class="cls-1" d="M833.21,310.97c1.32-.94,7.12-13.22,17.91-10.41s15.47,11.98,15.47,11.98c0,0-6.15-19.75-21.75-15.84-15.59,3.91-11.63,14.27-11.63,14.27Z"/>
          <path class="cls-1" d="M760.47,309.33c-1.14.96,4.68-2.11,10.24,0s6.61,6.32,6.61,6.32c0,0-5.26-16.15-16.85-6.32Z"/>
        </g>
        <path class="cls-8" d="M1161.9,361.8s30.81,20.31,42.88,24.6l12.06,4.29s-1.69-15.67-54.94-41.59l-53.25-25.92,53.25,38.63Z"/>
        <path class="cls-11" d="M1177.34,275.87s15.38,19.2,50.36,35.03c34.99,15.83,97.12,56.75,121.25,91.79,24.13,35.04,30.77,51.33,23.53,59.17-7.24,7.84-25.94,0-25.94,0,0,0-.6,9.65-25.94-4.22-25.34-13.87-35.75-25.94-35.75-25.94,0,0,37.56,28.35,3.17,18.7-34.38-9.65-71.18-59.72-71.18-59.72,0,0-46.2-36.78-72.34-50.06-26.13-13.28-70.03-26.85-61.58-45.1,8.45-18.25,47.07-38.55,94.41-19.66Z"/>
        <path class="cls-8" d="M1201.16,286.32s111.29,76.42,125.77,91.52c0,0-104.66-91.52-125.77-91.52Z"/>
        <path class="cls-8" d="M1081.86,260.38s-7.99,25.64-6.18,43.89c1.81,18.25,40.42,27.81,40.42,27.81l6.03,4.97s-62.13-4.15-55.5-38.6c6.64-34.45,15.23-38.07,15.23-38.07Z"/>
      </g>
      <path class="cls-11" d="M513.17,194.07s18.9-4.94,30.61,3.22c11.71,8.16,79.37,20.8,92.18,27.7s14.01,13.18,9.04,13.05-53.16,1.6-79.76-5.62c-26.61-7.22-52.06-38.36-52.06-38.36Z"/>
      <path class="cls-11" d="M379.78,50.7c-2.37,6.66-6.52,11.38-6.79,11.67h0c-1.7-.08-3.8-2.07-6.13-5.39-2.57-3.67-5.44-8.96-8.38-15.11-6.03-12.61-12.38-28.79-17.24-41.87h26.36c5.51,13.73,10.7,28.48,12.89,35.61.47,1.56.75,3.11.87,4.63.26,3.74-.46,7.32-1.58,10.46Z"/>
      <path class="cls-11" d="M294.71,238.13s-95.59-19.09-130.09-34.64c-34.5-15.54-51-14.84-73.5-59.44-22.5-44.6-9-36.53-43.5-62.31C28.32,67.31,11.28,43.44,0,25.21V0h84.42l6.7,19.52s27,7.98,40.5,55.2c13.5,47.23,70.56,124.55,109.53,140.64,38.96,16.08,53.56,22.77,53.56,22.77Z"/>
      <path class="cls-11" d="M0,219.34v-34.48c12.67,16.04,30.02,30.04,52.12,30.5,52.5,1.09,66.97-13.09,82.23,0,15.27,13.08,52.77,22.77,52.77,22.77,0,0-40.92,3.05-59.62.83-1.87-.22-3.52-.49-4.88-.83-10.79-2.65-82.96,2.06-122.62,4.91v-23.7Z"/>
      <path class="cls-8" d="M269.78,422.66s33.33,30,82.67,24,81.33-58,81.33-58c0,0-19.33,70-87.33,66s-76.67-32-76.67-32Z"/>
      <path class="cls-8" d="M297.78,421.75s58.67,33.58,100.67-7.08c0,0-34.67,32.83-100.67,7.08Z"/>
      <path class="cls-8" d="M316.45,312.33s-27.5,33-22.5,54.5,48.5,21.83,48.5,21.83c0,0,53,2.67,65-10.33s9.97-40.18-25.5-77c0,0,31.5,37,27.5,55.5s-6,14-6,14c0,0,7.21-16.55-5-29.5-16.5-17.5-50.33-27.43-70,3.78-9.96,15.8-6,34.72-6,34.72,0,0-43.6-.52-6-67.5Z"/>
      <path class="cls-8" d="M293.34,290.33s-20.23.5-23.56,14.5c-3.33,14,2.45,43,23.56,34.5s22.61-36,20.11-41.5-16.76-7.82-20.11-7.5Z"/>
      <path class="cls-8" d="M381.95,301.33s9-13.5,20.5-14.5,33.17,13,31.33,26-16.28,22.35-30.31,15.68l-21.52-27.18Z"/>
      <path class="cls-1" d="M346.68,346.06s-10.63-10.15-3.38-13.9,37.47-4.33,38.65,0-9.18,18.95-11.59,17.98l-2.42-.97s-.48,6.76-2.42,6.76-10.14,0-10.87-5.31c0,0-6.38,3.95-7.97-4.56Z"/>
      <path class="cls-1" d="M359.47,351.59s3.13,20.77,0,26.57-12.15,6.28-12.15,6.28c0,0,9.85,0,13.54-3.86l3.69-3.86s2.42,9.18,12.56,7.73c0,0-7.73-3.38-9.18-9.18s-2.23-23.67-2.23-23.67h-6.23Z"/>
      <path class="cls-1" d="M279.45,315.58c.04-.24-.14-8.25,12.18-9.25s13.32,13,8.82,18-23.5,6.5-21-8.75Z"/>
      <path class="cls-1" d="M398.45,308.75s-.56-7.92,9.47-7.42,13.53,3.5,13.03,12-19.3,15.12-22.5-4.58Z"/>
      <path class="cls-6" d="M283.95,317.04s4.28-4.71,9.39-3.21,4.44,3.21,4.44,3.21h-13.83Z"/>
      <path class="cls-6" d="M403.95,311.47s4.22-5.31,10.11-5.19,3.39,5.19,3.39,5.19h-13.5Z"/>
      <path class="cls-9" d="M276.04,313.54c1.52,2.74-3.59-10.71,7.91-12.21s20.5,2.21,21.5,6.1l1,3.9s2-18-22.5-14.5c0,0-14.71,4.47-7.91,16.71Z"/>
      <path class="cls-9" d="M393.45,301.33s5.85-2.79,17.51-4.95,13.99,8.76,13.99,8.76c0,0,.46-14.92-15.75-14.84,0,0-18.25,6.03-15.75,11.03Z"/>
      <path class="cls-9" d="M279.22,330.72c-1.65-1.74,10.73,2.39,16.23,0,0,0-6.48,10.25-16.23,0Z"/>
      <path class="cls-9" d="M403.95,323.83s3.23,6.99,10.11,3.75,8.89-3.75,8.89-3.75c0,0-13.5,2.5-19,0Z"/>
      <path class="cls-8" d="M437.95,363.83s8.5-27.72,6.5-33.11,4.11,2.11.3,29.11l-6.8,4Z"/>
      <path class="cls-8" d="M240.95,317.04s-7.5,24.29,0,44.79l7.5,20.5s-23.5-34.08-7.5-65.29Z"/>
      <path class="cls-1" d="M344.27,355.93s-53.29,45.46-57.01,61.36c0,0,18.37-23.25,26.09-30.68,7.72-7.43,30.92-30.68,30.92-30.68Z"/>
      <path class="cls-1" d="M389.45,355.33s33.67,35,44.33,51.5,13.83,23.5,12.25,20-35.58-45.5-47.58-56.5-9-15-9-15Z"/>
      <path class="cls-1" d="M314.35,353.33s-15.87,12.5-27.09,24.5-31.81,24.5-31.81,24.5c0,0,11.73-3.61,29.45-20,17.72-16.39,29.45-29,29.45-29Z"/>
      <path class="cls-1" d="M302.9,345.11s-22.75,3.22-39.35,14.22-21.64,18.5-21.64,18.5c0,0,30.88-23.5,48.46-27l12.54-5.72Z"/>
      <path class="cls-1" d="M395.95,335.28s38.5,18.72,53,32.64,16,17.08,16,17.08c0,0-26.81-24.56-40-31.66s-29-18.06-29-18.06Z"/>
      <path class="cls-1" d="M400.95,353.33s22.05,15.36,31.06,24.81,32.94,33.19,32.94,33.19c0,0-45.87-39.39-53.99-46.26-8.11-6.88-10.01-11.74-10.01-11.74Z"/>
      <path class="cls-8" d="M122.65,699.47s-14.46,48.45,0,76.95,14.46,69,6.96,78-54-9-54-9c0,0,39.76,36,61.88,19.5s-3.38-105.58-3.38-105.58c0,0-8.37-57.63,1.31-84.35l-11.24,20.46"/>
      <path class="cls-11" d="M489,686.33s3,36,3,59-22,108-18,135,9,72,10,82-96-159-96-159l101-117Z"/>
      <path class="cls-6" d="M368,75.33s12,44,38,62,98,78,98,78l10,2s-86-82-100-88-46-54-46-54Z"/>
      <path class="cls-6" d="M604.58,253.43s31.51,1.6,47.53,5.34,9.61,5.34,30.44,4.27,65.69-12.82,65.69-12.82c0,0-41.12,22.43-57.14,23.5s-35.78-2.67-44.86-5.87-41.66-14.42-41.66-14.42Z"/>
      <polygon class="cls-6" points="515.4 224.59 521.27 224.59 542.63 235.81 515.4 224.59"/>
      <path class="cls-9" d="M0,243.04v17.32l128.24-20.83s-.27-.21-.74-.57c-2.55-1.93-11.02-8.1-15.01-8.1-4.72,0-65.35,3.94-87.39,1.58-8.01-.86-16.95-6.39-25.1-13.1v23.7Z"/>
      <path class="cls-8" d="M1213.33,412.03s14.48,34.52,43.98,50.11c29.51,15.59,92.98,20.6,92.98,20.6,0,0-115.25,14.48-136.96-70.71Z"/>
      <path class="cls-2" d="M420.44,1162.69c3.22,0,3.22-5,0-5s-3.22,5,0,5h0Z"/>
      <path class="cls-11" d="M697.12,1273.06s-10.76-24.46-63.59-40.76c-39.37-12.15-73.12-23.76-93.43-36.18l.16-.15s-4.42-3.29-11.89-8.51c-1.55-1.45-2.93-2.92-4.09-4.4-13.7-17.61-15.98-18.91-15.98-18.91,0,0-65.22-74.31-117.54-68.33-41.17,4.71-49.6,49.51-46.36,96.68.98,20.94,4.78,38.11,4.78,38.11,0,0-2.95,25.51-15.34,33.98-12.39,8.48-69.79,59.68-65.22,83.16,4.57,23.48,86.09,2.61,102.4-1.3,16.31-3.91,27.72-22.83,27.72-22.83,0,0-9.78,24.46,18.59,36.52,28.37,12.07,70.76,32.94,89.03,28.7,18.26-4.24,25.44-21.2,20.54-33.59-4.89-12.39-11.74-21.52-11.74-21.52,0,0-5.66-11.82-31.46-29.81-18.15-12.65-36.86-22.01-45.28-31.21.11.11.22.23.32.32,0,0-22.09-36.62-17.01-49.45,5.08-12.83,35.83-30.99,52.05-20.33,16.22,10.65,34.07,45.04,34.07,45.04,2.71,3.18,6.74,9.1,6.74,9.1l4.3,7.82-.12-.45c14.96,27.16,37.16,63.74,55.1,77.77,30,23.48,48.59,34.57,60.98,25.11,12.39-9.46-.98-52.5-6.2-59.68-5.22-7.17-7.17-12.72-7.17-12.72,0,0,41.42,6.85,57.07,3.26,15.65-3.59,22.5-17.61,18.59-25.44Z"/>
      <path class="cls-9" d="M193.96,192.28s-73.49-17.47-89.99-70.45c-16.5-52.99-55.15-72.96-65.82-86.22C33.77,30.16,28.66,15.46,24.16,0h36.95c5.1,19.43,11.8,37.88,19.45,41.84,17.41,9,30.18,89.52,53.79,107.76,23.62,18.23,59.61,42.68,59.61,42.68Z"/>
      <path class="cls-8" d="M438.78,659.21s13.5-3,13.5,39-10.5,79.5-13.5,101.99c-3,22.5,13.5,47.43,13.5,47.43,0,0-4.5-30.93,0-41.43s51.49-136.33-13.5-146.99Z"/>
      <line class="cls-4" y1="25.21" y2="0"/>
      <line class="cls-4" y1="243.04" y2="219.34"/>
    </g>
    <g id="Vrstva_1_kopie" class="cls-10">
      <path class="cls-5" d="M1455.12,386.4l-3.02-343.18s-2.6-1.04-10.11-3.07V-28.67h-238.75s-253.17-12.52-359.04,0h-391.96c-29.72-49.16-64.96-21.87-64.96-21.87l-146.15-22.5,18.91,44.37H74.58l-5.96-17.37h-17.12c-.53-3.22-.81-5.11-.81-5.11l-38.21,5.11H-26l4.46,17.37h-4.46v221.06c-.05-.06-.08-.1-.08-.1l-.79,72.44.87-.14v444.25H38.8c.97,22.94,2.69,41.61,2.69,41.61,0,0,11.3,281.34,292.21,463.05,0,0,5.12,2.2,13.42,5.62,1.09,7.07,2.06,11.48,2.06,11.48,0,0-2.95,25.51-15.34,33.98-12.39,8.48-69.79,59.68-65.22,83.16,4.57,23.48,86.09,2.61,102.4-1.3s27.72-22.83,27.72-22.83c0,0-9.78,24.46,18.59,36.52,28.37,12.07,70.76,32.94,89.03,28.7,18.26-4.24,25.44-21.2,20.54-33.59-4.89-12.39-11.74-21.52-11.74-21.52,0,0-5.66-11.82-31.46-29.81-18.15-12.65-36.86-22.01-45.28-31.21.11.11.22.23.32.32,0,0-7.18-11.91-12.41-24.52,21.06,6.62,39.77,10.99,48.41,9.16,8.48-1.79,16.12-12.86,22.44-27.48,6.34,9.74,10.67,18.09,10.67,18.09,2.71,3.18,6.74,9.1,6.74,9.1l4.3,7.82-.12-.45c14.96,27.16,37.16,63.74,55.1,77.77,30,23.48,48.59,34.57,60.98,25.11s-.98-52.5-6.2-59.68c-5.22-7.17-7.17-12.72-7.17-12.72,0,0,41.42,6.85,57.07,3.26,15.65-3.59,22.5-17.61,18.59-25.44,0,0-10.76-24.46-63.59-40.76-39.37-12.15-73.12-23.76-93.43-36.18l.16-.15s-4.42-3.29-11.89-8.51c-1.55-1.45-2.93-2.92-4.09-4.4-4.77-6.13-8.15-10.28-10.54-13.1.71-4.54,1.24-8.74,1.57-12.41.5-5.58.54-9.96.07-12.53h0c-5.66-32.41-20.12-126.07-32.27-191.05-1.86-17.07-5.82-51.43-9.11-73.64-4-27,18-112,18-135,0-10.98-.68-24.92-1.4-36.5h951.4v-323.4c8.34.62,13.12.97,13.12.97Z"/>
    </g>
  </g>
</svg>