<?xml version="1.0" encoding="UTF-8"?>
<svg xmlns="http://www.w3.org/2000/svg" version="1.1" viewBox="0 0 100 100">
  <defs>
    <style>
      .cls-1 {
        fill: #fff;
      }

      .cls-2 {
        fill: #d4edfc;
      }

      .cls-3 {
        fill: #114c59;
      }

      .cls-4 {
        fill: #83a1ba;
      }
    </style>
  </defs>
  <!-- Generator: Adobe Illustrator 28.7.1, SVG Export Plug-In . SVG Version: 1.2.0 Build 142)  -->
  <g>
    <g id="Vrstva_1">
      <path class="cls-3" d="M36.1,9.1S10,13.7,14.3,53.4c4.3,39.6,33.9,39.6,52.9,34.8,19-4.9,28.4-33,14.9-58C68.6,5.1,45.1,7.7,36.1,9.1Z"/>
      <path class="cls-1" d="M21.2,32.6s5.7-1.6,9,4.9c3.3,6.6,1.6,23.3,5.9,26.6,4.3,3.3,24.8,6.6,28.3-4.9,3.5-11.5-3.5-13.5-4.5-19.9-1-6.3.3-17,5.5-17.6s12.5,6.3,16.2,18.2c3.7,11.9,2.2,26-1.6,32.6s-25,14.3-41.4,10.4c-16.4-3.9-21.7-34.5-22.3-40.8s4.9-9.6,4.9-9.6h0Z"/>
      <path class="cls-2" d="M21.4,47.1s2.1,11.7,5.9,10.7,3.7-7.2,1.2-11.7-7.4-.3-7.2,1h0Z"/>
      <path class="cls-2" d="M65.8,42.6c.2-.8,1.2-8.8,5.7-8.2s4.1,10.4,2.7,12.5-9.4-.3-8.4-4.3h0Z"/>
      <path class="cls-3" d="M23.4,47.7s-.9-2.8,2.4-1.6,3.1,8.8,1.9,9.4-4.3-7.9-4.3-7.9h0Z"/>
      <path class="cls-3" d="M68.9,44s-1.7-6.6,1.6-7.4,2.2,7.5.9,9.1-2.5-1.7-2.5-1.7h0Z"/>
      <path class="cls-4" d="M39,54.7c2.7-4.1,7.2-10.9,9-10.7s12.5,4.6,11.9,6.9-8.2,6.3-10.4,6.9-11.5-1.6-10.5-3.1Z"/>
      <path class="cls-3" d="M42.2,55.6l7.2-2.7h6.8s-4.7,4.8-14,2.7h0Z"/>
    </g>
  </g>
</svg>