<?xml version="1.0" encoding="UTF-8"?>
<svg xmlns="http://www.w3.org/2000/svg" version="1.1" viewBox="0 0 1417.32 708.66">
  <defs>
    <style>
      .cls-1 {
        fill: #fee0bc;
      }

      .cls-2 {
        fill: #d4edfc;
      }

      .cls-3 {
        fill: #fff;
      }

      .cls-4 {
        fill: none;
      }

      .cls-5 {
        fill: #0f4c59;
      }

      .cls-6 {
        opacity: 0;
      }

      .cls-7 {
        fill: #fbbd51;
      }

      .cls-8 {
        fill: #ecf7fe;
      }

      .cls-9 {
        fill: #82a0b9;
      }

      .cls-10 {
        fill: #fbceb4;
      }
    </style>
  </defs>
  <!-- Generator: Adobe Illustrator 28.7.1, SVG Export Plug-In . SVG Version: 1.2.0 Build 142)  -->
  <g>
    <g id="Vrstva_1">
      <rect class="cls-1" y="0" width="1417.32" height="708.66"/>
      <polygon class="cls-1" points="1451.56 302.01 1451.32 302.02 1451.32 302.01 1451.56 302.01"/>
      <path class="cls-10" d="M430.6,230.43c6.4-5.61,76.9-23.95,105.62-23.95s28.72-5.56,42.62,0,20.22,8.34,44.85,4.63,34.73,3.88,49.6,6.11,55.64-3.16,76.95,0,54.41,13.21,54.41,13.21h-374.07.02Z"/>
      <path class="cls-9" d="M445.68,224.34s19.81-6.35,39.06-10.24c19.24-3.89,29.79-2.94,34.02,0s2.9,3.38,7.36,3.83,21.18-4.23,20.96-3.34-2.01,6.59-.89,5.75,32.11,2.63,33.89,0-.67-5.09,4.91-2.41,45.04,7.23,61.54,6.41,21.18-2.83,37.9-1.27,39.69,2.23,39.69,2.23c0,0-12.93,13.82-13.6,13.6s-264.83-14.56-264.83-14.56h-.01Z"/>
      <path class="cls-9" d="M1112.69,46.91s4.93.49,6.41,1.72,1.23,3.2,1.23,3.2l.02,1.97s-.75-1.72-1.74-1.72-3.45,1.72-3.45,1.72c0,0,4.71,4.93,5.19,6.9s1.49,13.8,0,13.8-7.41-10.1-10.36-15.03l-2.96-4.93-9.61-1.23-4.93,1.48s-3.94-4.43-1.72-4.43,6.16.74,6.16.74c0,0,4.19-2.71,5.91-2.96l-1.48-6.9c-.74-3.45-2.71-15.77-2.71-15.77,0,0,7.14,8.38,10.1,11.33,2.96,2.96,3.94,10.1,3.94,10.1h0Z"/>
      <path class="cls-10" d="M1417.32,150.32v89.78h-656.73,0s.02-.03.04-.04c.05-.04.13-.1.23-.19h.01c.11-.08.24-.19.39-.31,2.35-1.82,10.5-8.14,20.95-16.14,22.71-17.37,56.26-42.58,64.51-46.39,5.57-2.58,13.12-9.18,20.23-15.86,9.16-8.61,17.59-17.35,20.13-17.76h0s20.5-3.44,29.09-3.44,60.12-33.87,70.18-35.09c10.06-1.22,20.12-2.21,24.29,0,4.17,2.21,28.47-3.68,62.33,2.7,33.87,6.38,54.23,8.83,63.56,8.83s29.45-10.06,37.55-10.55,7.12,2.21,21.84,8.1c14.72,5.89,47.12,4.58,60.37,9.53s36.07,13.79,47.61,15.75c11.53,1.96,9.57,3.68,21.84,6.14,12.27,2.45,32.88,3.68,37.55,1.47,4.66-2.21,12.02-2.21,20.61-2.7,8.59-.49,18.16-6.38,23.31-1.96,2.53,2.17,6.33,5.29,10.09,8.13Z"/>
      <path class="cls-9" d="M1393.47,211.14c-20.61-2.7-67,15.71-75.83,13.5-8.83-2.21-19.14-11.29-19.14-11.29,0,0-12.52-18.16-21.35-27.98-8.83-9.81-50.55-45.39-60.61-51.53-10.06-6.14-25.03-17.67-27.24-17.67s5.89,6.14,14.23,14.48c8.35,8.34,27.49,25.52,41.23,41.18,13.75,15.66,31.17,34.4,31.17,34.4,0,0-2.7,0-6.63-2.94-3.93-2.95-7.85-7.85-15.95-13.5s-19.14-21.11-22.82-23.07c-3.68-1.96,2.7,4.67,7.36,13.01,4.67,8.34,11.79,14.72,12.52,15.21.73.49-2.21-1.23-6.14-1.23s1.22,2.7,1.96,3.44.25,2.7-2.94,3.68c-3.19.98-19.64-4.91-23.07-6.63-3.43-1.72-4.66,2.45-8.34,5.64s-12.76-.49-16.44-2.21c-3.68-1.71-18.89,8.1-26.01,6.14-7.11-1.96-4.17-3.19-9.94-9.08-5.78-5.89-21.47-25.03-32.27-38.04-10.79-13-37.05-31.9-45.64-36.56-8.59-4.67-13.99-5.65-15.95-6.14-1.96-.49,7.12,7.61,15.71,15.95,8.59,8.34,14.97,19.38,23.2,29.2,3.03,3.62,9.43,10.49,16.17,17.75.1,1.7.28,3.62.64,4.59.73,1.97,14.72,22.82,14.72,22.82,0,0-8.35,7.61-12.52,7.85-4.17.24-19.63-2.95-36.56-13.01s-27.98-6.13-36.32-12.02c-8.35-5.89-2.95-7.61-10.8-7.61s-25.52,19.63-25.52,19.63l-4.17-5.15c-4.18-5.15-5.65-4.91-16.2-7.36-10.55-2.45-12.51-12.27-21.1-20.56-8.59-8.29-16.69-2.02-21.6-1.03-4.91.99-36.32,2.7-47.61-2.94-11.29-5.65-16.57-11.29-16.57-11.29h-.02c-1.62-1.52,2.09,11.05,0,13.99-2.09,2.94-15.79-3.42-20.12-3.59h-.02c-4.31-.15-8.02,7.24-18.51,12.18-6.94,3.27-43.1,31.39-66.82,50.08h-.01c-10.15,8-18.01,14.27-20.33,16.13-.15.12-.28.23-.39.31h-.01c-.1.09-.18.15-.23.19-.02.01-.03.02-.04.03h0s656.73.01,656.73.01v-25.73c-6.74-.94-15.11-2.09-23.85-3.23ZM1127.97,186.34c-1.25-1.72-2.45-3.64-3.5-5.46,10.36,11.18,20.23,22.01,18.71,22.15-2.69.24-11.28-11.29-15.21-16.69Z"/>
      <path class="cls-9" d="M904.16,149.42s17.18,23.6,17.91,22.42,1.43-2.69,1.23-4.37-4.17-3.81-2.45-6.81,6.7-1.29,2.49-4.48-19.18-6.75-19.18-6.75h0Z"/>
      <path class="cls-9" d="M992.26,130.16c0,.74,4.66,5.89,6.63,10.55,1.96,4.66,2.21,3.93,1.47,6.14s.38,5.89.38,5.89c0,0,1.34-3.44,1.58-7.61.25-4.17,0-4.42-1.47-6.14s-8.59-8.83-8.59-8.83Z"/>
      <path class="cls-9" d="M1071.28,138.5s29.2,39.51,35.58,46.63c6.38,7.12,15.21,15.21,15.21,15.21l-1.72-5.15s-15.21-20.86-18.65-25.77-30.43-30.92-30.43-30.92h.01Z"/>
      <path class="cls-10" d="M1309.56,126.23c.34-.92-3.44.98-8.1,0s-19.14,2.45-17.91-1.23c1.23-3.68,11.78-8.83,14.23-7.12l2.45,1.72s7.12-1.47,9.33,0,9.57-.74,10.8.25,6.38-1.05,8.83,2.3-6.38,4.88-7.36,4.6-13.25,2.18-12.27-.52h0Z"/>
      <path class="cls-10" d="M1333.61,127.51s4.91-2.16,6.87,0c1.96,2.16,2.94-.19,6.87,0s1.96-.05,3.93.19,7.36-4.17,14.97-2.7,9.57,2.7,9.08,4.42c-.49,1.72,4.31,4.66.07,4.42s-7.68-2.94-7.68-2.94c0,0,.49,3.22-3.68,2.96l-4.17-.26s-4.66,2.51-7.12.27.49-4.12.49-4.12c0,0-9.33,4.09-14.23,2.62s-7.11-4.27-5.4-4.86h0Z"/>
      <path class="cls-10" d="M1402.32,133.1s-5.64-.08-3.19-3.35c2.45-3.27,5.89,0,5.89,0,0,0,8.1-.08,6.38,3.35s-9.08,0-9.08,0h0Z"/>
      <path class="cls-10" d="M1263.67,110.28s.74-3.93,4.91-3.19,4.91,1.55,4.91,1.55c0,0,5.4-1.55,5.15,1.64s-4.66,4.62-5.64,3.66-10.8,1.98-9.33-3.66h0Z"/>
      <path class="cls-10" d="M1107.35,101.2s4.66-5.64,8.1-2.7,3.68,6.87,3.68,6.87c0,0,8.1,2.7,2.94,4.17s-11.04-2.64-11.04-2.55-13.01,3.34-14.36,0,10.67-5.8,10.67-5.8h.01Z"/>
      <path class="cls-3" d="M1417.32,226.57v482.09H0V220.68c62.02,1.41,310.38,6.77,397.82,3.92,100.26-3.27,191.42,3.28,319.02.37,20.18-.46,41.99-.99,64.76-1.54h.01c.2,0,.4,0,.61-.01,121.11-2.86,269.08-5.8,342.37,1.55,66.85,6.7,223.3,3.48,292.73,1.6Z"/>
      <path class="cls-2" d="M61.34,633.67c-13.12.49-45.02-3.28-61.34-5.36v-4.05c4.65-1.01,10.39-1.93,16-1.93,12.67,0,14.67,7.33,20.67,0,6-7.33,12.67-9.33,20.67-7.33s23.33,8,38,12c14.67,4-16,6-34,6.67Z"/>
      <path class="cls-2" d="M130,639s21.33-11.33,34.67-10,23.33,4.75,30,4.71,20.67-6.26,39.33-4.82,44,2.86,50.67,4.82,31.33,5.29,31.33,5.29c0,0-62,5.33-88.67,4.67s-38,.06-38,.06c0,0-28-2.72-35.33-2.72s-24-2-24-2h0Z"/>
      <path class="cls-2" d="M128,667.66c-7.33,2-3.63,2-28.81,2.67-25.18.67-21.19,6-50.52,6.67-18.79.43-37.59.31-48.67.16v-6.83c17.33-2.67,25.33-3.33,28.67-4.67,3.34-1.34,6,2.67,9.33,0s9.33-18.67,38.67-16c0,0,6.37,5.03,22.52,10.18,16.15,5.15,12.81,3.82,20.81,5.82s15.33,0,8,2Z"/>
      <path class="cls-2" d="M332,597.75s13.33,1.87,23.33-4.06,6.67-10.6,21.33-10.6,16.67,2,25.33,4,17.33,3.47,17.33,3.47c0,0-23.33,2.4-33.33,3.13s-48,12.06-54,4.06h.01Z"/>
      <path class="cls-2" d="M303.33,621.18c10.67-.85,39.33-7.64,46.67-6.91s14,6.42,28.67,6.91,43.33,2.81,43.33,2.81c0,0-32,7.69-56.67,4.68s-62-7.5-62-7.5h0Z"/>
      <path class="cls-2" d="M418,603.67s44.67-14.67,61.33-11.33,32.67,14,34.67,11.33-10,1.33-24,0-23.89,0-23.89,0c0,0,29.22,5.33,27.22,6s-80,1.33-75.33-6Z"/>
      <path class="cls-2" d="M162,681s19.33-4,25.33,0,26.67,13.33,47.33,17.33,32.67,7.33,32.67,7.33c0,0-48.67-6-65.33-6.67s-28-2.44-34.67-6.56-5.33-11.44-5.33-11.44h0Z"/>
      <path class="cls-2" d="M503.33,584.33s83.33-1.33,116-6,36.67-9.33,73.33-8,42.67-.67,86,3.33,130.67,13.33,130.67,13.33c0,0-83.33-6-85.33-4s34,9.33,42.67,13.33,48.67,15.51,78.67,16.09l30,.58s-37.33,8.67-116.67-9.33c0,0-24.67-4.32-53.33-11.83s-59.33-9.51-59.33-9.51c0,0-8,4.35,4,9.51s22.67,9.11,22.67,9.11c0,0-48.67,6.61-68.67,0s-28.67-10.09-34-8.35-1.33,10.3.67,8.35,0,8.05-18,2.72-15.33-6.99-34-11.83-72.67,0-72.67,0l70-7.51s-110.67,6-112.67,0h0Z"/>
      <path class="cls-2" d="M906,643.72s17.33-9.66,32.67-7.53,28.67,3.61,28.67,3.61c0,0-8.67,1.97-22.67,3.92s-38.67,0-38.67,0h0Z"/>
      <path class="cls-2" d="M1405.03,301.34c4.29.1,8.41.19,12.29.27v1.29l-482.39,12.59c9.12-.63,330.74-22.64,385.54-18.15,27.14,2.22,59.03,3.39,84.56,4Z"/>
      <polygon class="cls-2" points="1451.56 302.01 1451.32 302.02 1451.32 302.01 1451.56 302.01"/>
      <path class="cls-2" d="M967.33,655s13.33-8.85,34.67-14.76c21.33-5.91,27.33-7.83,34-10.87s6.67-16.12,10.67-7.58.56,20.38,24.61,22.79c24.05,2.41,65.39,8.41,76.72,10.41s52.67,13.33,52.67,13.33c0,0-34.67-6-64.67-6.67s-79.33-8-99.33-8.67-69.33,2-69.33,2v.02Z"/>
      <path class="cls-2" d="M1060.67,618.94s39.33-7.17,41.33-8.89,6.67-8.38,9.33-6.38c2.67,2,6.67,11.22,18,15.28,11.33,4.06,25.33-1.69,20,2.85s-32-.54-48,0-54.67,0-54.67,0l14-2.85h.01Z"/>
      <path class="cls-2" d="M1189.33,615.09s67.33-1.91,88.67,0,59.33,8.61,59.33,8.61c0,0-24.67,2.03-61.33,0s-99.33-4.75-99.33-4.75l12.67-3.86h-.01Z"/>
      <path class="cls-2" d="M1287.33,610.05c2-2.38,129.33,2.45,121.33,5.03s-81.33-12.75-92-11.42-29.33,6.38-29.33,6.38h0Z"/>
      <path class="cls-2" d="M1417.32,581.92v12.89c-2.09.09-3.81.34-4.65.85-3.33,2-75.86-2.92-64.49-3.83h0c19.81-1.56,18.49-1.5,41.15-4.83,10.27-1.5,20.2-3.43,27.99-5.08Z"/>
      <path class="cls-2" d="M1010,551.67s35.33-10,44-13.33,33.33-16,47.33-20,13.49-11.33,20.74-4.67c7.26,6.67-1.41,11.31,15.92,17.65s38.67,9.68,38.67,9.68c0,0-35.18-2.67-54.59-1.33-19.41,1.33-15.41,5.33-34.08,8s-78,4-78,4h0Z"/>
      <path class="cls-2" d="M1240,545.67s95.33,7.33,85.33,6-90-.67-85.33-6Z"/>
      <path class="cls-2" d="M744.67,548.75l244.67-3.08s-233.33-1.84-244.67,3.08Z"/>
      <path class="cls-2" d="M332,675.67s47.6,7.33,85.8,8.67,145.53,0,145.53,0c0,0-166.48-4.74-178-4.04s-53.33-4.63-53.33-4.63h0Z"/>
      <path class="cls-2" d="M753.33,516.33l109.33,2.67s-109.33,2-109.33-2.67Z"/>
      <polygon class="cls-2" points="747.33 489 823.33 492.33 744.67 492.33 747.33 489"/>
      <path class="cls-2" d="M739.33,461.67s2.67-2,18,0,18,0,18,0c0,0-9.46-3.33-14.73-4.67s-21.27,4.67-21.27,4.67Z"/>
      <path class="cls-2" d="M736,444.33s36,3.33,48,4.67,28.67-2.33,28.67-2.33l-76.67-2.33h0Z"/>
      <path class="cls-2" d="M753.33,414.33s48.67-1.33,67.33-6,26-10.67,42-12.67,22-16,43.33-24.67,35.33-15.32,44-17.66,10-7.01,14-4.34,1.33,2,11.33,13.33,32,36.67,34.67,37.33,7.33-1.33,17.33,4,16,8,0,6.67-18.67-4.67-40.67-5.33-84.72,14-128.67,9.33-104.67,0-104.67,0h.02Z"/>
      <path class="cls-8" d="M983.33,343.67c1.49,1.49,26,28.12,34.67,38.06,8.67,9.94,28.67,25.94,28.67,25.94l-9.46,4-43.21-11.33-34.14-51.64s15.76-12.73,23.47-5.03Z"/>
      <path class="cls-2" d="M1003.26,423.67s103.4-18,112.07-26.67c8.67-8.67,4-16.55,20-15.27s19.33-2.06,31.33,3.94-8-1.33,25.33,11.33,38.27,8.67,47.8,14.67-118.47,9.33-132.47,12-137.33,8-132,7.33,27.93-7.33,27.93-7.33h.01Z"/>
      <path class="cls-2" d="M1417.32,415.76v21.91h-47.98s30-9.52,18-11.43c-12-1.91-64-4.57-52.67-4.57s20-6.41,20-6.41h0c12,2.4,3.33-1.76,30-.01,12.33.81,23.84.78,32.65.51Z"/>
      <path class="cls-2" d="M1278.45,344.87c-1.02.08-2.07.13-3.12.13-1.69,0-.37-.04,3.12-.13Z"/>
      <path class="cls-2" d="M1417.32,338.56c-17.46-2.75-44.2-7.01-58.66-9.56-22.66-4-65.33,12.19-65.33,12.19,0,0-6.82,3-14.88,3.68,15.84-.39,76.52-1.66,105.15-3.68,14.47-1.02,25.62,0,33.72,1.56v-4.19Z"/>
      <path class="cls-2" d="M580.37,302.96c21.33-2.67,22.67,0,44-4.67s38-11.14,58.67-11.9,44.67,0,44.67,0l11.27,8.12s-14.86-3.79-33.93,0-2,9.12-38.67,11.79-90,0-90,0l4-3.33h-.01Z"/>
      <path class="cls-2" d="M420.37,310.29c3.33-3.33,5.67-13.53,5.67-13.53,0,0,11.02-20.47,18.34-18.47s2.66,11.86,8.66,15.93,19.33,16.07,19.33,16.07c0,0,41.33,3.98,29.33,5.99-12,2.01-29.33,0-29.33,0,0,0,38.37,12.68,31.52,12.68s-75.52,8.48-118.85,7.24-62.67.12-62.67.12c0,0,60.67-6.03,78-6.69s38.67-5.05,35.33-4.86-39.53,0-39.53,0c0,0,37.53-4.5,34.87-8.49s-10.67-5.99-10.67-5.99Z"/>
      <path class="cls-8" d="M457.03,291.55l24.67,19.74h-24.67l-12.66-33s3.88.28,12.66,13.26Z"/>
      <path class="cls-2" d="M840.09,467.52c2,0,63.33-17.22,94-9.94s78.67,27.97,75.67,28.62-51.67-11.06-64.33-12.87-23.33-1.23-17.33,2.48,20.56,7.51,20.56,7.51c0,0-20.56,9.14-46.56,0s-62-15.81-62-15.81h0Z"/>
      <path class="cls-2" d="M38.96,265.69c7.33.2,59.33-6.28,75.33-10.38,16-4.1,25.33-3.24,26.67,0,1.34,3.24,18.67,13.24,18.67,13.24,0,0-24.67,3.33-36.67,0s-84-2.86-84-2.86Z"/>
      <path class="cls-2" d="M140.67,448.34c-17.33,2-2.67,8.39-32,11.2-23.48,2.25-84.54,9.53-108.67,5.5v-7.38c20.24-4.03,65.21-12.72,78-12.98,16.67-.34,14-13.96,27.33-12.15,13.33,1.81,41.33,11.82,46.67,12.15,5.33.33,6,1.66-11.33,3.66Z"/>
      <path class="cls-2" d="M367.7,263.3c6-1.01,39.33-7.62,51.33-12.31s7.35-6.69,25.34-8.69,32.43,7.01,48.21,10.5c15.78,3.49,42.45,2.88,65.11-.14s36-21.03,51.33-13.69,52.67,25.5,52.67,25.5c0,0-25.33-9.77-46.67-6.3-21.33,3.47-26.67,11.47-73.33,13.47s-174-8.33-174-8.33h.01Z"/>
      <path class="cls-8" d="M631.7,244.29l30,20.17-71.46-24.45s20.29-9.95,41.46,4.28Z"/>
      <path class="cls-8" d="M1111.33,603.67s2-4.07,12-.37,52.67,22.43,50.67,20.4-38.67.9-38.67.9c0,0-34.67-11.6-24-20.93h0Z"/>
      <path class="cls-8" d="M1046.67,621.79s31.33,19.86,37.33,24.2-1.33,6.34-4,6.34-47.33-10.41-33.33-30.54h0Z"/>
      <path class="cls-8" d="M1118,510.98c-.47.02,6.67,2.02,14,5.36s13.01,2,18.5,8c5.5,6,13.58,14.26,13.58,14.26l-48.75-7.27,2.67-20.35Z"/>
      <path class="cls-2" d="M804.67,313.67s34-22,44-19.33,19.33,14,24,14.67-6.67-1.33-29.33.67-38.67,4-38.67,4h0Z"/>
      <path class="cls-2" d="M882,233.67c13.33-2,22.48-6.67,32.57-8.67s15.43,0,24.76,4.33,35.83,7,35.83,7c0,0-47.83.67-63.83,0s-29.33-2.67-29.33-2.67h0Z"/>
      <path class="cls-2" d="M1038.52,263c13.33-4.42,10-6.42,20-3.75s6.67-5.07,16.67-1.2,38,3.38,35.33,4.96-25.82,1.99-35.91,2.45-42.76,0-42.76,0l6.67-2.45h0Z"/>
      <g>
        <path class="cls-5" d="M1216.19,668.05s6.04,10.43,16.75,13.18,20.59,2.75,27.73,7.41c7.14,4.67,7.96,6.86,8.79,4.94s-3.84-13.45-5.49-14.55,7.14,4.67,12.08,5.22,10.98,5.77,13.73,4.67-7.14-10.71-7.41-14.83-3.29-7.96-9.06-9.88-30.47-6.04-36.24-8.79,29.65-29.93,29.65-29.93c0,0,9.33,20.04,19.77,22.79s16.47,1.1,21.14,1.65,6.31,3.29,19.49-3.02c13.18-6.31,17.3-15.37,23.61-15.37s8.51,1.65,10.16,0-3.57-6.04-3.57-6.04l3.89-3.29s7.91-1.37,11.76-1.92,8.79,1.92,10.43,0c1.65-1.92-10.71-8.79-13.18-9.61s-3.02-4.39-9.88-4.39-22.51,8.51-22.51,8.51l-22.51-.82-156.22,1.92s-8.51,3.84-10.71,7.41,0,3.84,0,3.84c0,0-.27,1.1-4.39,3.84s-18.67,9.61-18.94,12.63l-.27,3.02,4.12-1.37s-7.69,2.62-7.96,5.01l-.27,2.4,4.67-2.4-2.2,4.32h1.92s-3.29,5.49-2.47,5.49-6.04-.82,7.69,0,25.53-1.1,26.91-2.2,6.31,1.1,9.06,0,4.94,6.31,4.94,6.31c0,0,1.92-.82,1.92,0s4.39,7.69,4.39,7.69c0,0-.27-4.39.55-3.29s2.75,3.02,2.75,3.02c0,0,8.24,1.1,10.16,1.1s25.26-4.67,25.26-4.67h-.04Z"/>
        <path class="cls-5" d="M1135.48,537.1s11.81,23.89,13.73,26.08,12.35-37.34,12.35-37.34l-16.2-146.88,31.85-113.94,32.4-61.5s58.03,14,62.1,9.33,5.99-17.02,16.42-25.26,24.43-15.92,29.1-16.2,16.2-1.92,21.41,0c5.22,1.92,6.04,3.84,7.14,3.29s-3.29-18.12-33.49-17.57c0,0-5.22,0-16.2-4.94s-31.3-16.75-49.69-15.92-26.91,3.84-40.91,16.2c0,0-7.14,4.67-18.12,17.85-10.98,13.18-17.3,29.65-26.36,36.79-9.06,7.14-23.34,28.28-33.49,67.26,0,0-6.04,12.9-7.69,21.14-1.65,8.24,1.1,9.88-3.29,19.77-4.39,9.88-8.24,27.18-9.88,43.1-1.65,15.92-3.02,40.91-1.92,49.97s11.81,83.46,10.16,103.23-2.47,57.65,4.12,58.75,13.18-9.06,14.83-17.02c1.65-7.96,1.65-16.2,1.65-16.2h-.02Z"/>
        <path class="cls-8" d="M1143.16,495.09s3.84,22.79,6.04,37.61-3.84,12.63,1.92,44.2c5.77,31.57,12.63,60.13,14.83,66.71,2.2,6.59,6.59,17.02,6.59,17.02l1.1-1.65v3.02h1.65l4.12-1.37v-2.2l3.57,9.33v-2.75l2.47,2.75s4.94,6.31,6.86,7.41,4.12,0,4.12,0c0,0,1.65,2.35,2.75.49s8.51-1.86,8.79-2.96,3.57,1.1,3.57,1.1c0,0,12.05,4.61,12.07,2.58s-1.66-3.68,0-8.07,1.66-6.04,4.68-6.86,12.9-3.02,20.04-7.41l7.14-4.39v2.47l4.94-3.84c2.2-.27,3.02,7.69,5.22,6.31s11.53-1.21,14.83-4.32c3.3-3.11,4.67-9.68,4.94-12.98s2.47-7.69,11.26-9.33c8.79-1.65,14-2.47,18.12-5.49s23.06-7.69,23.06-7.69c0,0-12.63-12.9-15.92-14,0,0-3.29-37.89.27-59.58,3.57-21.69,7.41-101.86,6.59-129.86-.82-28-1.92-63.42-14-107.35,0,0-9.33-43.38-15.1-55.73s-12.25-28.55-27.95-35.42c0,0-6.92.82-17.9-4.12s-29.38-9.61-33.77-9.61-12.9.82-14.28-4.94c-1.37-5.77,3.29-21.69,1.92-25.81s-1.65-12.9-20.32,1.92c0,0-17.85,23.61-16.47,29.93,1.37,6.31,5.77,13.73,5.77,13.73,0,0,4.12-8.79,13.73-10.16,9.61-1.37,14.28-2.47,13.45.55-.82,3.02-7.41,10.43-17.57,18.94-10.16,8.51-16.75,19.22-21.96,36.51-5.22,17.3-9.06,22.51-10.98,35.14s-4.39,38.99-8.79,51.07c-4.39,12.08-6.59,15.92-6.59,15.92,0,0,.82,43.38,2.75,55.18s4.39,70.01,2.47,77.97l-.03.03Z"/>
        <path class="cls-2" d="M1303.22,596.12s-4.67,18.39-7.14,22.79c-2.47,4.39-3.29,3.29-3.29,3.29,0,0,3.84.27-4.94,4.67-8.79,4.39-12.9,3.87-14.83,5.22-1.92,1.35-4.92,3.37-12.35,3.84s-11.03,3.32-14.92,7.08-3.58,14.11-3.58,14.11l13.28-7.46v2.47l4.94-3.84s3.84,9.43,5.22,8.84-.66-.32,7.08-1.97c7.74-1.65,9.35-2.93,11.7-7.64s.21-16.25,7.39-18.11,14.44-3.35,22.96-6.91c8.52-3.57,17.19-6.14,17.19-6.14,0,0-18.84.93-20.49-7.58s-4.94-16.47-8.24-12.63l.02-.03Z"/>
        <path class="cls-2" d="M1168.7,626.14s1.92,15.56,4.12,16.93.55,5.49,3.29,5.49,7.96,6.31,7.96,6.31c0,0,15.1,8.24,25.26,5.49s17.57-3.22,17.57-3.22l4.39-2s-10.98,2.47-20.32-3.02c-9.33-5.49-25.81-6.86-30.47-14.83-4.67-7.96-5.22-15.1-5.49-12.9s-3.02-1.92-3.02-1.92l-.29-6.74s-5.48,5.83-3.01,10.4h.01Z"/>
        <path class="cls-7" d="M1193.4,170.31s4.4,25.22,9.06,25.81,7.16,2.14,7.16,2.14c0,0-5.95-2.9-2.58-19.68,0,0,4.75-22.08-8.15-16.55,0,0-6.43,3.48-5.49,8.28h0Z"/>
        <path class="cls-7" d="M1259.3,174.7s10.98-7.96,22.51-9.61,29.65-1.65,37.34,0-5.77,4.94-16.75,5.77-23.61-1.1-28.83,0-14.28,3.84-14.28,3.84h.01Z"/>
        <path class="cls-9" d="M1241.45,162.03s1.65-2.43,4.39-2.43,7.96-1.59,7.96,1.54-5.22,3.95-7.41,3.95-6.21-1.78-4.94-3.06Z"/>
        <path class="cls-5" d="M1244.2,162.14s2.32-4.04,4.67-1.01c2.35,3.03-3.65,2.74-4.67,1.01Z"/>
      </g>
      <path class="cls-2" d="M590.24,652.33s100.43,5.33,184.09,11,319,21.59,319,21.59c0,0-696.58-9.26-648.96-16.59s145.87-16,145.87-16h0Z"/>
      <path class="cls-10" d="M218.67,150.33s-6.61-8,7.7-7.33,14.3,7.33,14.3,7.33c0,0,18.67-.67,13.33,9.33s-17.95,0-17.95,0c0,0-47.38,14.67-17.38-9.33Z"/>
      <path class="cls-10" d="M280,179.67s4.67-7.33,12-5.33,14.05-5.68,17.03,2.49-14.51,7.51-14.51,7.51c0,0-21.85,5.33-14.51-4.67h0Z"/>
      <path class="cls-10" d="M66,97.01c-5.33,13.33-29.33,4.67-29.33,4.67,0,0-20.55,7.07-36.67,9.4v-27.23c7.86-3,17.38-2.84,27.33,1.82,0,0,13.33-12,20-5.33,6.45,6.45.42,10.41.02,10.66.76-.22,23.89-7.1,18.65,6.01Z"/>
      <path class="cls-10" d="M645.33,81.67s5.33-6.7,12.33-3.35,4.03,6.68,4.03,6.68c0,0,22.3-3.33,12.97,5.33s-22,4.74-22,4.74c0,0-24-1.4-7.33-13.4Z"/>
      <path class="cls-2" d="M609.53,538.59s122.56-7.03,165.81-7.27,106.67,0,106.67,0c0,0-265.54,16.29-272.47,7.27h-.01Z"/>
      <g>
        <path class="cls-5" d="M864.44,407.46s-4.09-5.73-4.91-8.74c-.82-3-.55-8.19,2.46-12.01s4.09-13.1,3.55-17.2-5.19-49.96,8.46-76.16c13.65-26.21,18.84-31.67,27.57-33.3s10.1-2.73,16.11-4.64,24.02-2.73,28.39,1.36,6.28,10.65,13.1,14.74,9.83,7.1,10.37,11.74c0,0-7.1-7.1-21.02-6.55,0,0-8.46,2.73-10.37,4.37s-25.66,30.03-25.93,34.4,0,30.03-.27,37.67-12.83,21.84-14.47,23.48,1.91,27.84,1.91,27.84l10.65,7.92s6.01-2.18,10.37-2.46,6.28,7.37,6.28,7.37l-3.28-3v6.55s-1.09-3.82-3-3-8.46,3.55-11.47,3-5.73-2.46-9.28-4.64-10.1-6.01-10.1-6.01c0,0-6.82,6.82-24.3,9.01-17.47,2.18-23.2-.82-23.2-.82,0,0,7.1-.55,11.47-2.73s7.64-9.01,10.92-8.19h-.01Z"/>
        <path class="cls-8" d="M888.74,371.7s-1.36,2.2,4.91,2.18c6.28-.01,14.47-16.38,15.56-24.02s1.36-18.02,0-31.39c0,0,0-15.29,5.46-21.02,5.46-5.73,10.37-19.93,10.37-19.93,0,0,3.82-2.18,2.46-5.19s-4.09-4.37-5.73-4.09-10.44,5.57-6.55-3.82c3.89-9.39,11.47-9.28,17.47-5.46,6.01,3.82-2.46,9.01-3,10.37s9.14,11.08,11.24,10.21,3.05,11.9,0,15.73-3.87,18.84-4.69,26.75-16.38,60.88-18.29,63.33c0,0-1.09,17.2-6.82,19.11,0,0,2.07,10.1-2.46,12.28s-5.73-1.91-5.73-1.91c0,0-2.73,3.82-5.73-3.55s.27-16.38-4.09-22.93c-4.37-6.55-10.1-16.65-4.37-16.65h-.01Z"/>
        <path class="cls-7" d="M946.89,271.79s13.98,2.09,16.92,5.73c0,0-18.02-4.37-16.92-5.73Z"/>
        <path class="cls-7" d="M925.36,256.52s3.24,1.07,3.24,4.62,1.09,8.19,1.09,8.19c0,0,17.51-11.42-4.33-12.81Z"/>
        <path class="cls-5" d="M745.7,415.38s-1.09,1.28,2.73,2.01,5.19,3.32,11.19,3.52,9.83-2.77,9.83-2.77l4.37,2.77v-2.76l3.28,1.32s-4.09-6.55-7.37-6.82-6.28,3-10.37,1.36-4.64-4.37-4.64-4.37c0,0,2.46,2.18,9.55,0,7.1-2.18,4.91-4.64,10.1-2.46s11.47,4.09,18.02,4.37,12.28-2.18,12.28-2.18l4.09.55v-3.58s3.82,1.12,4.91,1.94-.55-5.46-5.46-6.28c-4.91-.82-13.1,1.64-13.1,1.64l-31.94-34.94,17.74-19.93-1.14-42.31-4.05-37.13s-1.09-9.55.55-11.19,7.1-5.73,11.47-6.01,8.74,0,8.74,0c0,0-1.91-2.73-7.1-3.28s-9.55.27-13.38-2.46-10.65-6.01-21.57,0c0,0-10.37,10.65-11.74,15.29,0,0-3.55,4.37-5.73,5.73-2.18,1.36-14.47,30.03-15.56,57.05-1.09,27.03,9.28,66.61,8.74,74.52-.55,7.92-6.99,11.47-8.82,14.47s-8.11,6.28-8.11,6.28c0,0,10.37,1.25,18.02,1.17,7.64-.08,14.47-5.54,14.47-5.54v.02Z"/>
        <path class="cls-8" d="M759.62,374.16c-.12-1.09-2.13-10.65,3.98-13.92,6.12-3.28,8.51,2.71,12.67-13.38s3.28-26.48,0-31.94-4.64-7.92-4.37-11.47.27-9.83.27-12.83,2.18-14.2.55-18.84c-1.64-4.64-1.59-6.55-9.12-6.01,0,0-13.26-2.73-13.26-5.19s9.33-9.01,13.26-8.19,1.48,7.64,2.84,9.01,8.84-1.54,8.93,1.51c0,0,17.83,22.21,16.46,69.04,0,0-7.1,33.72-6.82,36.45s4.37,9.83,4.09,15.83,1.79,10.65,2.8,11.47,5.95,4.28,6.62,7.06-.96,7.69-4.24,7.41-6.01-3.28-6.01-3.28c0,0-7.89-2.46-13.77-8.74s-14.74-22.71-14.89-24.02v.03Z"/>
        <path class="cls-8" d="M752.52,311.92s6.01,8.74,7.92,12.83,3.16,24.3,3.16,24.3c0,0-3.55-22.38-5.54-24.57s-5.54-12.56-5.54-12.56h0Z"/>
        <path class="cls-7" d="M776.54,253.84s6.28-5.52,13.1-3.61c0,0-11.19,2.58-13.1,3.61Z"/>
        <path class="cls-7" d="M766.44,261.42s-3.96-4.96-8.38-4.89-.35-4.73,7.02-4.7c0,0,3.82,7.4,1.36,9.59Z"/>
      </g>
      <g>
        <path class="cls-9" d="M688.57,353.73s3.01,9.64,0,14.26-7.84,6.23-8.44,10.04,4.42,15.87,4.02,24.51-1.41,13.46-7.23,15.87-39.98,1.81-46.21-2.41c0,0-15.67,7.03-28.93,7.23s-16.88-2.61-18.88-6.83-8.04-32.14-6.43-45.6,4.62-18.88,6.03-23.3,5.83-10.65,5.63-14.26-3.42-17.28,3.42-23.51c6.83-6.23,11.05-7.63,14.06-7.63s14.87,18.88,16.67,21.09,4.22,8.44,4.22,12.05c0,0,7.7,17.68,6.56,20.89,0,0,15.94-17.88,23.77-19.09,0,0,8.84-11.45,22.5-7.63,0,0,10.04,21.5,9.24,24.31h0Z"/>
        <path class="cls-3" d="M612.51,322.37s6.44,3.96,9.23.11-.04-10.19-1.1-13.27-8.91-6.11-13.25-3.83-11.06,17.07,5.12,16.98h0Z"/>
        <path class="cls-5" d="M601.78,350.72s-1.41,7.23-1.41,10.04-5.22,25.72-11.05,23.3c0,0-2.21-.6-2.21-8.24s-.2-9.43-1-13.15.5-8.64.5-8.64c0,0-2.17,3.57-1.37,8.64s1.03,12.37,1.03,15.23,1.37,7.54,3.65,7.65,5.71-4.34,7.77-10.16,3.2-12.11,3.31-13.48.78-11.2.78-11.2h0Z"/>
        <path class="cls-5" d="M644.4,364.09s-5.37,6.05-4.34,10.05,5.6,10.85,4.34,14.96c-1.26,4.11-5.28,13.02-2.13,13.93s9.78-5.71,12.86-17.93v-6.62c0-3.54.11-6.85,2.28-9.36s3.54-5.02,3.54-5.02c0,0-5.37,8.11-4.91,13.13.46,5.02-.11,9.94-2.97,16.22s-8.34,13.02-11.99,10.28c0,0-3.65,1.48,2.97-15.87,0,0,0-3.2-1.71-6.05s-4.37-6.4-2.41-11.88,4.47-5.82,4.47-5.82v-.02Z"/>
        <path class="cls-5" d="M688.09,350.72s3.01-1.93,5.53-2.16,4.34.11,4-.91-3.2-3.54-4.74-4.45-3-4.8-4.78-6.74-5.54-6.39-8.77-7.03-9.69.98-13.11,4.52-1.37,12.68,1.37,15.53,12.79,5.02,15.65,5.02h3.88l.98-3.78h-.01Z"/>
        <path class="cls-3" d="M673.18,350.15s-2.97-4.2-1.83-8.27,6.47-6.12,9.69-4.87,5.48,4.12,5.39,6.38-4.8,3.32-4.8,4.24.69.23,1.94.46,4.21,1.45,4.52,2.62,1.19,3.78-.98,3.78-12.42-1.27-13.93-4.34h0Z"/>
        <path class="cls-2" d="M675.23,343.53s.8-2.17,3.2-2.17,4.11,3.52,3.31,4.21-7.54.93-6.51-2.04h0Z"/>
        <path class="cls-5" d="M676.6,343.69s1.6-1.3,2.63-.5-2.72,2.37-2.63.5Z"/>
        <path class="cls-5" d="M605.6,302.1s5.68-.94,10.25,1.35,9.02,8.79,11.08,10.05,6.08,3.08,6.13,4.23-3.84.46-5.1.91-5.95,4.23-6.21,3.85-3.27-4.31-4.29-4.65-2.11-.27-1.03-.91,4.34-2.17,4-4.11-6.97-6.28-10.28-5.48-4.86,7.42-4.54,9.48-1.62,2.7,2.26,4.04,6.74.98,6.28,1.67-8.45,2.29-11.53,2.29-12.94-5.33-10.12-15.91c0,0,5.3-7.22,13.12-6.79l-.02-.02Z"/>
        <path class="cls-2" d="M610.82,313.35c.05-.24.51-1.94,3.28-1.93s4.03,2.54,2.54,3.62-6.4,1.25-5.82-1.69Z"/>
        <path class="cls-5" d="M612.51,313.6s1.54-2.26,2.45-.96,1.52.14,0,.96-2.45,0-2.45,0Z"/>
        <path class="cls-9" d="M610.14,420.73s9.29.47,9.75,2.52-1.22,1.29-1.22,1.29c0,0,.73-.03-1.39.14s-.59-.9-2.11.17-1.64,3.05-4.39.46-3.68-3.5-3.68-3.5l3.05-1.07h-.01Z"/>
        <path class="cls-9" d="M623.54,417.23c.46,0,8.23,3.13,9.51,1.67s-1.6-4.87-1.6-4.87l-7.92,3.2h0Z"/>
        <path class="cls-9" d="M673.63,418.45c.72.61,3.9,1.37,1.49,2.28s-5.45,0-5.45,0c0,0-3.96,2.13-4.11,0s8.07-2.28,8.07-2.28Z"/>
      </g>
      <g>
        <path class="cls-9" d="M576.63,947.26s-1.67,3.35-1.21,3.81.31,1.91,1.22,1.87,0,.04,2.59,0,5.63-2.84,5.63-2.84c0,0,.31.96,2.59,1.42,2.28.45,4.42,2.58,6.7,2.58,0,0-.76,2.44,5.03,2.89,5.79.45,9.13-1.2,11.27-.68s4.26.83,4.41-.78-1.68-5.56-3.21-6.32-1.22-.91.15-1.98,8.96-21.12,10.47-26.78,3.03-13.55,4.24-16.08,2.58-6.19,6.08-8.17,9.12-11.28,9.58-12.19-3.23-23.75-5.82-25.12-11.12-2.12-15.23-.89c0,0-3.06-10.26-8.54-7.79,0,0-1.22,1.25-1.21,3.08s.92,3.04.31,5.18-1.06,3.2-1.06,3.2c0,0-5.63,1.53-7.31,1.99,0,0-12.67-21.15-23.78-17.78,0,0-1.06,1.47,2.29,3.78s6.86,7.17,7.02,10.68.47,8.37,1.38,8.83l.91.46s-12.93,13.42-15.89,21.19-8.43,16.15-8.88,23.16-6.82,28.64,10.24,33.33l.03-.05Z"/>
        <path class="cls-2" d="M606.09,879.16s-19.82-.97-17.32-19.67c0,0-.81,7.2,4.67,11.76,5.49,4.56,12.95,4.93,13.86,6.34s-1.22,1.57-1.22,1.57h.01Z"/>
        <path class="cls-2" d="M612.76,861.02s6.24-2.75,7.31-2.9c0,0-4.42,0-7.31,2.9Z"/>
        <g>
          <path class="cls-5" d="M641.7,884.82c-.12.2-6.68.25-10.95-5.69s-6.62-15.2-1.7-18.12,2.74-2.59,7.31-2.14,14.63,8.97,14.63,8.97v.76s4.11-.34,5.03.66l.91,1s-3.65-.3-5.33.77-1.82,1.83-3.5,2.9-2.13,1.68-2.13,1.68c0,0,1.98.76,4.26.76s6.09,2.14,5.79,3.5c0,0-2.89-1.06-3.96-.76s-3.35,1.92-4.87,1.65-5.5,4.07-5.5,4.07h.01Z"/>
          <path class="cls-3" d="M629.98,870.14c0-.46,1.57-5.06,5.02-5.94s10.51,1.63,10.97,5.07-1.52,4.36-1.97,5.73-.3,3.67,1.07,4.12,2.89,1.64,2.89,1.64c0,0-2.28,1.25-3.04,2.47s-1.77,1.6-3.22,1.6-10.49-4.63-11.11-9.66l-.62-5.02h0Z"/>
          <path class="cls-2" d="M637.14,871.72s-1.98-1.47,1.22-2.45,5.33,2.78,4.57,3.56-6.14,1-5.79-1.11Z"/>
          <path class="cls-5" d="M638.05,871.26s1.05-1.59,2.13-.83,2.48.58,1.44,1.29-4.32.3-3.57-.46h0Z"/>
        </g>
      </g>
      <g>
        <path class="cls-9" d="M457.44,303.8s-11.61,2.9-13.47,11.61-4.35,11.81-5.39,14.3-14.3,19.69-14.51,37.31c-.21,17.62,4.97,32.12,7.67,41.87s-3.32,13.06,7.25,15.13,24.87,1.87,27.15-1.45,1.87-4.15,9.33-7.88,15.75-11.61,13.89-25.08c-1.87-13.47-8.29-32.33-6.84-37.1s2.49-12.02,1.04-18.03-7.25-10.36-7.25-10.36l-18.86-20.31h-.01Z"/>
        <path class="cls-5" d="M477.34,327.02s-14.25,3.11-20.49-.83-14.53-18.03.6-22.38,22.59,7.05,23.63,8.7,5.39,2.69,5.18,3.94-3.52.62-4.77,1.24-1.87,8.91-4.15,9.33h0Z"/>
        <path class="cls-3" d="M471.99,319.47c.53-1.8,2.32-7.59,0-9.45s-14.5-2.07-15.14,3.94c-.65,6.01,2.46,9.74,5.78,11.19s12.86,1.88,14.9,0,2.72-1.45.85-2.69-6.86-1.4-6.38-2.98h0Z"/>
        <path class="cls-2" d="M463.87,315.5s3.32-2.79,5.18-1.54,1.19,3.41-1.48,3.68-4.68-1.43-3.7-2.13h0Z"/>
        <path class="cls-5" d="M465.73,315.65s1.49-1.32,2.38-.35-2.59,1.83-2.38.35Z"/>
        <path class="cls-5" d="M458.69,346.7c-.63-.54-6.42,10.36-6.42,13.26s0,24.87-1.24,30.26-4.15,10.16-4.15,10.16c0,0,6.84-7.25,6.84-17.62s-.41-18.65,1.04-22.8,5.39-12.02,3.94-13.26h-.01Z"/>
        <path class="cls-9" d="M466.86,419.66c1.12.13,8.82.83,9.23,2.49s-12.48,1.99-12.48,1.99l3.24-4.47h.01Z"/>
      </g>
      <g>
        <path class="cls-9" d="M555.85,339.68c0,.62,5.39,6.22,3.52,14.3s-7.88,15.34-4.97,23.83,8.91,13.26,7.05,21.97-7.82,11.61-7.82,11.61c0,0,8.94-2.9,8.18,0s-15.07,8.91-16.93,7.46l-1.87-1.45-4.97.62s8.29,1.87,6.63,3.11-19.9,2.49-20.1,0-11.81-.41-12.02-1.87,0-2.07,0-2.07c0,0-5.39-2.69-8.7-14.09-3.32-11.4,2.69-46.84,9.12-54.92,6.42-8.08,9.95-13.68,12.23-18.65s5.6-13.26,17.2-11.19,13.47,21.35,13.47,21.35h-.02Z"/>
        <path class="cls-5" d="M561.85,327.04s-9.93-11.63-22.78-9.03c0,0-8.71,4.68-5.18,12.76s5.8,9.12,12.23,9.74,11.04-2.27,9.56-2.17-1.48-3.84,2.46-3.84,4.77-2.69,6.42-2.9,3.52-.41,3.11-1.04-1.24-.41-2.69-1.45-3.12-2.08-3.12-2.08h0Z"/>
        <path class="cls-3" d="M544.87,336.37c-.32-1.2-3.52-7.88,0-10.36s7.05-3.94,11.19,0,0,6.63,0,6.63c0,0,3.05,3.94-.38,5.7s-10.42-.52-10.81-1.97h0Z"/>
        <path class="cls-2" d="M548.81,327.87s1.52-1.87,3.87,0-.51,2.9-2.29,2.49-1.58-2.49-1.58-2.49Z"/>
        <path class="cls-5" d="M549.64,328.75c-.08-.69,1.44-1.41,2.49-.56s-2.32,1.96-2.49.56Z"/>
        <path class="cls-5" d="M543.83,356.16s-3.21,4.15-6.63,6.53-6.53,13.16-6.42,16.17-1.14,7.88-3.01,8.39-8.5,0-8.81-6.53l-.31-6.53s-2.38,9.42,1.97,13.21,9.4.89,10.3-.56.97-7.98,1.45-10.05,3.69-11.61,5.76-13.16,7.36-7.36,5.7-7.46h0Z"/>
      </g>
      <g class="cls-6">
        <path class="cls-9" d="M234.32,320.29s7.13,6.67,10.13,16.8c2.99,10.13,3.91,65.36-5.06,71.81s-16.34,5.98-16.34,5.98c0,0,8.75,0,8.75,2.76s-20.94.69-22.32,0-18.64.46-23.47-2.3c-4.83-2.76-7.13-33.59-3.91-45.68s14.73-30.73,14.73-30.73c0,0,1.84-3.22,2.3-4.6s-4.37-12.2,3.45-17.26,31.76,3.22,31.76,3.22h-.02Z"/>
        <path class="cls-5" d="M222.35,348.36s-6.21,11.97-5.29,17.03,2.12,11.97-.09,19.1c-2.21,7.13-4.05,17.49-8.88,19.56s1.75,2.53,5.48-4.37,6.95-17.06,6.72-22.8-1.84-11.03-.92-15.86,2.99-12.66,2.99-12.66h-.01Z"/>
        <path class="cls-5" d="M234.78,315.42s2.76-1.58,2.3-2.5-4.6-1.38-4.6-1.38c0,0-8.15-7.36-18.11-4.6-9.96,2.76-12.73,10.13-12.73,13.81s8.29,7.59,14.73,7.36,9.21-3.45,8.52-3.45-7.92,2.53-10.52,0-4.77-10.59,0-12.66,9.61-1.2,9.6,2.07.69,5.52,4.37,6.21,7.59,1.79,6.44-4.86h0Z"/>
        <path class="cls-3" d="M230.18,321.9s-3.17,2.28-5.29,2.76-9.67,3.68-12.43,0c-2.76-3.68-3.23-11.82,4.03-13.39,7.25-1.57,6.55,1.09,7.53,4.15s3.86,5.04,6.16,5.2,0,1.27,0,1.27h0Z"/>
        <path class="cls-2" d="M216.37,317.22s.68-1.68,3.02-1.79c3.66-.18,7.62,1.01-3.02,1.79Z"/>
        <path class="cls-5" d="M218.26,316.19s1.33-.47,2.24,0-1.38.14-2.24,0Z"/>
      </g>
      <g>
        <path class="cls-9" d="M657.45,953.44c-1.17-1.11-29.44-5.49-11.95-38.14s63.26-23.91,70.26-20.99,12.24,12.24,5.97,18.95-7.14,6.41-12.39,7.58-2.62,16.33-10.5,24.49-13.41,8.11-13.41,8.11c0,0,4.66.05,3.79,2.09s-8.91,0-8.91,0c0,0,6.1,11.12,0,7.87s-7.41-8.16-7.41-8.16l-15.45-1.8h0Z"/>
        <path class="cls-9" d="M692.73,900.49c2.77-1.19.63-8.84-2.31-19.17-2.94-10.33,1.14-13.24-3.23-13.83s-5,13.99-6.87,18.08-2.5,4.96,0,11.08,8.28,5.62,12.41,3.84h0Z"/>
        <path class="cls-9" d="M702.32,892.91s17.28-11.96,22.21-8.34-7.02,10.03-8.77,13.53-13.44-5.19-13.44-5.19Z"/>
        <g>
          <path class="cls-5" d="M710.1,922.56c-.23.08-5.38-4.21-4.79-11.67.59-7.46,4.87-16.23,10.64-15.27,5.77.97,3.85-.22,7.12,3.15s5.24,15.25,5.24,15.25l-.24,2s1.57,3.01,1.62,4.4-1.22,4.43-1.22,4.43c0,0-.74-5.11-2.75-5.38s-1.42-.93-3.43-1.2-2.77-.1-2.77-.1c0,0,1.05,1.9,2.83,3.4s3.35,5.69,2.21,6.55c0,0-1.56-2.73-2.59-3.2s-3.88-.71-4.89-1.93-6.98-.45-6.98-.45v.02Z"/>
          <path class="cls-3" d="M710.64,903.36c.3-.36,4.56-2.92,7.84-1.33s7.13,8.21,5.22,11.2-4.06,2.4-5.32,3.17-2.66,2.67-1.88,3.92,1.17,3.18,1.17,3.18c0,0-2.6-.53-4-.08s-2.44.08-3.57-.87-5.13-10.54-2.29-14.87l2.84-4.33h-.01Z"/>
          <path class="cls-2" d="M715.18,909.32s-.58-2.46,2.57-1.11c3.14,1.35,2.33,5.69,1.22,5.8s-5.45-3.27-3.78-4.69h0Z"/>
          <path class="cls-5" d="M716.2,909.56s1.87-.54,2.2.76,1.55,2.1.27,1.96-3.57-2.62-2.48-2.71h0Z"/>
        </g>
        <path class="cls-2" d="M678.67,898.93s-1.07,10.04,3.5,10.52-2.14,2.33-4.58-.47,1.07-16.84,1.07-16.84v6.8h.01Z"/>
      </g>
      <g>
        <path class="cls-9" d="M753.33,957.05c-.58-.9-11-15.05-6.67-26.72s5.67-21.75,33.33-18.04,39.33,15.04,49,18.04,15.67-2.67,21,5.67,2.33,23-5.67,26.33-11.33-.33-19.33,0-61,11.1-71.67-5.28h0Z"/>
        <path class="cls-9" d="M803.33,949.72s14,17.62,20.33,18.28,11.33.67,8.67,4.67-19.33,3.33-27,0-16.67-13.33-14.33-18,12.33-4.95,12.33-4.95Z"/>
        <path class="cls-9" d="M746.33,942.2s-11.66,1.13-10.33,3.8,5.11,2,5.11,2c0,0,.56,3.1,1.89,1.72s4.67.28,7.67-5.05-1.1-15.72-5.05-16.53-1.82,2.86-1.82,2.86c0,0-4.46,1-2.46,2s-2.33,2.33.33,4.33,4.66,4.87,4.66,4.87h0Z"/>
        <path class="cls-9" d="M758.34,913.34s-14,24.76-17,25.71,4,4.62,9.33,5.62,7.67-31.33,7.67-31.33Z"/>
        <path class="cls-2" d="M815.15,962.57s-4.48-12.24-7.48-15.24-6.67-2.64-6.67-2.64c0,0,8.63-11.89,14.15,17.88h0Z"/>
        <path class="cls-5" d="M827.65,962.37s.69-9.12,9.35-9.91,15.52-2.12,14.81,0-.92,6.37-6.59,9.37c0,0-3.05,5.68-5.47,6.56s-3.28-4.63-3.28-4.63l-8.83-1.39h.01Z"/>
        <path class="cls-3" d="M836.48,963.76c.06-1.03-1.03-4.08,1.15-3.86s6.09.65,7.62-1.74-5.57-5.01-8.99-3.92-6.33,7.8-5.16,8.33,5.38,1.19,5.38,1.19h0Z"/>
        <path class="cls-5" d="M838.15,955.11s-1.66,1.74,0,2.61l1.66.87-1.66-3.48Z"/>
      </g>
      <polyline class="cls-4" points="305.69 616.79 300.99 591.9 159.67 495.46 133.33 500.43"/>
      <path class="cls-4" d="M351.46,354.98"/>
      <path class="cls-9" d="M769.88,250.53s.44-1.02,1.6-1.02,1.75.87,1.31,1.46-2.91.58-2.91-.44Z"/>
      <path class="cls-5" d="M770.76,251.99s-.15-1.89.73-1.89.87,2.04.87,2.04l-1.6-.15Z"/>
      <path class="cls-9" d="M942.69,265.09s.87,2.47,1.89,2.18.73-.87.15-1.6-2.33-1.16-2.04-.58h0Z"/>
      <path class="cls-5" d="M941.67,267.27s1.75-1.89,2.47-1.46-.87,2.91-.87,2.91l-1.6-1.46h0Z"/>
      <path class="cls-9" d="M1202.23,69.59s1.16.34,1.95.79.75.74.99.62.57-.74-.13-1.28-1.67-.91-2.04-1.64-.85-1.87-3.23-2.04-6.98-.31-10.32.65-7.83.79-7.43,1.53.37,1.05,1.92,1.05,3.22.36,3.95.61l.74.24s-3.97,4.14-4.05,4.79,5.57-2.04,6.53-2.5,1.79-1.5,1.79-1.5c0,0,3.08.43,3.41.43,0,0-.41,1.62.4,1.56s3.02-1.86,3.22-2.43c0,0,1.5-.6,1.7-.77s.63-.11.63-.11h-.03Z"/>
      <g>
        <path class="cls-9" d="M1293.1,33.15s-.68-.77-1.06-1.45-4.74-.58-4.74-.58c0,0-3.29-5.03-3.48-7.45-.19-2.42-6.87-9.29-9.77-11.42s-3.19-1.64-3.29-1.16,5.71,9.35,6.29,10.82,1.84,6.4,2.71,7.85,1.16,2.03,1.16,2.03l-3.87,2.32s-3.68-.58-3.68.48,1.45,4.45,2.23,4.45,1.55-1.35,2.9-1.35,4.26-.1,5.22,0,5.9,7.16,6.58,8.9c.68,1.74,5.22,12.48,5.9,12.29s.1-8.32-.68-12.19-2.71-5.9-3.97-7.16-2.43-4.16-2.43-4.16c0,0,1.85-1.06,2.23-1.64s1.74-.58,1.74-.58h.01Z"/>
        <path class="cls-9" d="M1340.61,31.12h1.74s-1.02-.39-1.14-.68-.8-2.52-2.34-2.52-6.09-.29-6.58-4.06-.48-6.77-2.81-9.67-12.19-11.51-12.19-9.96,6.09,12.58,6.29,12.87.58,5.71,1.64,8.13c1.06,2.42,1.35,3.39,1.35,3.39,0,0-3.19,2.03-4.74,2.03s-2.61-.58-2.9.48-.48,4.74.58,5.22,2.52-1.57,4.64-1.56,5.03,0,5.03,0c0,0,1.74,8.14,3.68,10.27l1.93,2.13s-.1,4.16.58,7.93,2.32,8.61,2.9,7.84,2.32-9.38,2.32-12.48.19-6.77-.68-8.03-3.58-4.45-3.58-6.39-.1-3.39-.1-3.39c0,0,3-.77,3.29-1.45l1.06-.1h.03Z"/>
        <path class="cls-9" d="M1323.48,35.96s-.85-1.65-2.81-1.84-2.98-.19-3.71-1.45c-.74-1.26-.86-4.16-1.04-5.61s-4.01-5.8-6.64-6.87-3.89-1.64-3.89-.77,4.16,4.84,4.74,5.71.1,4.55.97,6.39.88,3.28.88,3.28c0,0-1.9,1.85-2.7,1.85s-2.73-.48-3.02.48,1.74,4.16,2.42,4.16.19-1.26,2.32-1.26,4.16.19,4.16.19c0,0,.77,5.22,2.13,7.16,1.35,1.93,1.55,3.39,1.45,4.64s-.29,7.74.58,7.55,3.77-9,3.58-12.58-2.26-4.45-2.92-6.48-.47-2.71-.47-2.71c0,0,2.01-.55,2.23-1.45s1.74-.39,1.74-.39h0Z"/>
      </g>
      <line class="cls-4" x1="1417.32" y1="342.75" x2="1417.32" y2="338.56"/>
    </g>
  </g>
</svg>