<?xml version="1.0" encoding="UTF-8"?>
<svg xmlns="http://www.w3.org/2000/svg" version="1.1" viewBox="0 0 40 40">
  <defs>
    <style>
      .cls-1 {
        fill: #fff;
      }
    </style>
  </defs>
  <!-- Generator: Adobe Illustrator 28.7.1, SVG Export Plug-In . SVG Version: 1.2.0 Build 142)  -->
  <g>
    <g id="Vrstva_1">
      <g>
        <path class="cls-1" d="M13.2,18.6c.8,0,1.4-.2,1.9-.5.5-.4.7-1,.7-1.8s0-.8-.3-1.1c-.3-.4-.4-.5-.6-.7-.3-.2-.6-.3-1-.4-.4,0-.7,0-1.1,0h-4.1v4.6h4.5Z"/>
        <path class="cls-1" d="M15.6,22.2c-.5-.4-1.3-.6-2.2-.6h-4.7v5.4h4.6c.4,0,.8,0,1.2-.2.4,0,.7-.2,1-.4.3-.2.5-.4.7-.8.2-.4.3-.7.3-1.2,0-1-.3-1.7-.9-2.1Z"/>
        <path class="cls-1" d="M30.6,19.1c-.4-.5-1.1-.8-2.1-.8s-1.1,0-1.5.4c-.4.2-.7.4-1,.8-.3.4-.4.6-.5,1,0,.4-.2.6-.2,1h6.4c-.2-1-.5-1.8-1-2.2h0Z"/>
        <path class="cls-1" d="M33.5.7H6.6C3.3.7.6,3.4.6,6.7v26.9c0,3.3,2.7,6.1,6.1,6.1h26.9c3.3,0,6.1-2.7,6.1-6.1V6.7c0-3.3-2.7-6.1-6.1-6.1ZM24.6,11.7h7.9v2.2h-7.9v-2.2ZM20.2,27.2c-.4.7-.9,1.3-1.6,1.8-.6.4-1.4.8-2.2,1s-1.7.4-2.6.4H4.5V10.8h9.2c1,0,1.8,0,2.6.3.8.3,1.4.4,1.9.8.5.4,1,.9,1.2,1.5.3.6.4,1.4.4,2.3s-.3,1.8-.7,2.5-1.1,1.2-1.9,1.6c1.2.4,2.1,1,2.7,1.9s.9,1.9.9,3.1-.2,1.9-.6,2.6ZM35.6,23.7h-10.2c0,1.2.4,2.2,1,2.7h0c.6.6,1.4,1,2.6,1s1.5-.2,2-.6.9-.8,1.1-1.2h3.4c-.5,1.7-1.4,2.9-2.6,3.6-1.1.7-2.5,1.1-4.1,1.1s-2.1-.2-3-.5c-.9-.4-1.7-.9-2.3-1.5-.6-.6-1.1-1.4-1.4-2.4-.4-1-.5-1.9-.5-3s.2-2,.5-2.9c.4-.9.9-1.7,1.5-2.4.6-.7,1.4-1.1,2.3-1.6.9-.4,1.9-.6,2.9-.6s2.2.3,3.2.7c.9.4,1.6,1.1,2.2,1.9.6.8,1,1.7,1.2,2.7.3,1,.4,2,.3,3.2Z"/>
      </g>
    </g>
  </g>
</svg>