<?xml version="1.0" encoding="UTF-8"?>
<svg xmlns="http://www.w3.org/2000/svg" version="1.1" viewBox="0 0 40 40">
  <defs>
    <style>
      .cls-1 {
        fill: #fff;
      }
    </style>
  </defs>
  <!-- Generator: Adobe Illustrator 28.7.1, SVG Export Plug-In . SVG Version: 1.2.0 Build 142)  -->
  <g>
    <g id="Vrstva_1">
      <g>
        <path class="cls-1" d="M27.6,34.4h-14.1c-4,0-7.3-3.3-7.3-7.3v-14.1c0-4,3.3-7.3,7.3-7.3h14.1c4,0,7.3,3.3,7.3,7.3v14.1c0,4-3.3,7.3-7.3,7.3ZM13.5,7c-3.3,0-5.9,2.7-5.9,5.9v14.1c0,3.3,2.7,5.9,5.9,5.9h14.1c3.3,0,5.9-2.7,5.9-5.9v-14.1c0-3.3-2.7-5.9-5.9-5.9h-14.1Z"/>
        <path class="cls-1" d="M20.6,26.2c-3.4,0-6.2-2.8-6.2-6.2s2.8-6.2,6.2-6.2,6.2,2.8,6.2,6.2-2.8,6.2-6.2,6.2ZM20.6,15.2c-2.7,0-4.8,2.2-4.8,4.8s2.2,4.8,4.8,4.8,4.8-2.2,4.8-4.8-2.2-4.8-4.8-4.8Z"/>
        <rect class="cls-1" x="27.4" y="10.4" width="2.8" height="2.8" rx="1.4" ry="1.4"/>
      </g>
    </g>
  </g>
</svg>