<?xml version="1.0" encoding="UTF-8"?>
<svg xmlns="http://www.w3.org/2000/svg" version="1.1" viewBox="0 0 40 40">
  <defs>
    <style>
      .cls-1 {
        fill: #fff;
      }
    </style>
  </defs>
  <!-- Generator: Adobe Illustrator 28.7.1, SVG Export Plug-In . SVG Version: 1.2.0 Build 142)  -->
  <g>
    <g id="Vrstva_1">
      <g id="Vrstva_1-2" data-name="Vrstva_1">
        <path class="cls-1" d="M15.3,20.5c0-2.5,2-4.5,4.5-4.5s4.5,2,4.5,4.5-2,4.5-4.5,4.5-4.5-2-4.5-4.5ZM12.8,20.5c0,3.8,3.1,7,7,7s7-3.1,7-7-3.1-7-7-7-7,3.1-7,7h0ZM25.3,13.2c0,.9.7,1.6,1.6,1.6s1.6-.7,1.6-1.6-.7-1.6-1.6-1.6-1.6.7-1.6,1.6ZM14.3,31.5c-1.3,0-2-.3-2.5-.5-.6-.2-1.1-.5-1.6-1-.5-.5-.8-.9-1-1.6-.2-.5-.4-1.2-.5-2.5,0-1.4,0-1.9,0-5.5v-5.5c0-1.3.3-2,.5-2.5.2-.6.5-1.1,1-1.6.5-.5.9-.8,1.6-1,.5-.2,1.2-.4,2.5-.5,1.4,0,1.9,0,5.5,0h5.5c1.3,0,2,.3,2.5.5.6.2,1.1.5,1.6,1,.5.5.8.9,1,1.6.2.5.4,1.2.5,2.5,0,1.4,0,1.9,0,5.5v5.5c0,1.3-.3,2-.5,2.5-.2.6-.5,1.1-1,1.6-.5.5-.9.8-1.6,1-.5.2-1.2.4-2.5.5-1.4,0-1.9,0-5.5,0h-5.5,0ZM14.2,7.1c-1.4,0-2.4.3-3.3.6-.9.3-1.6.8-2.4,1.6s-1.3,1.5-1.6,2.4c-.3.9-.5,1.9-.6,3.3v5.6c0,3.7,0,4.1,0,5.6,0,1.4.3,2.4.6,3.3.3.9.8,1.6,1.6,2.4s1.5,1.3,2.4,1.6c.9.3,1.9.5,3.3.6h5.6c3.7,0,4.1,0,5.6,0,1.4,0,2.4-.3,3.3-.6.9-.3,1.6-.8,2.4-1.6s1.3-1.5,1.6-2.4c.3-.9.5-1.9.6-3.3,0-1.5,0-1.9,0-5.6,0-3.7,0-4.1,0-5.6,0-1.4-.3-2.4-.6-3.3-.3-.9-.8-1.6-1.6-2.4s-1.5-1.3-2.4-1.6c-.9-.3-1.9-.5-3.3-.6-1.5,0-1.9,0-5.6,0-3.7,0-4.1,0-5.6,0h0Z"/>
      </g>
    </g>
  </g>
</svg>