<?xml version="1.0" encoding="UTF-8"?>
<svg xmlns="http://www.w3.org/2000/svg" version="1.1" viewBox="0 0 40 40">
  <defs>
    <style>
      .cls-1 {
        fill: #fff;
      }
    </style>
  </defs>
  <!-- Generator: Adobe Illustrator 28.7.1, SVG Export Plug-In . SVG Version: 1.2.0 Build 142)  -->
  <g>
    <g id="Vrstva_1">
      <g>
        <circle class="cls-1" cx="19.9" cy="20.5" r="4.5"/>
        <path class="cls-1" d="M30.4,12.4c-.2-.6-.5-1.1-1-1.6s-.9-.8-1.6-1c-.5-.2-1.2-.5-2.5-.5h-5.5c-3.6,0-4.1,0-5.5,0-1.3,0-2,.3-2.5.5-.6.2-1.1.5-1.6,1-.5.5-.8.9-1,1.6-.2.5-.5,1.2-.5,2.5v5.5c0,3.6,0,4.1,0,5.5,0,1.3.3,2,.5,2.5.2.6.5,1.1,1,1.6s.9.8,1.6,1c.5.2,1.2.5,2.5.5h5.5c3.6,0,4.1,0,5.5,0,1.3,0,2-.3,2.5-.5.6-.2,1.1-.5,1.6-1s.8-.9,1-1.6c.2-.5.5-1.2.5-2.5v-5.5c0-3.6,0-4.1,0-5.5,0-1.3-.3-2-.5-2.5ZM19.9,27.5c-3.8,0-7-3.1-7-7s3.1-7,7-7,7,3.1,7,7-3.1,7-7,7ZM27.1,14.9c-.9,0-1.6-.8-1.6-1.6s.8-1.6,1.6-1.6,1.6.8,1.6,1.6-.8,1.6-1.6,1.6Z"/>
        <path class="cls-1" d="M33.4.4H6.5C3.2.4.5,3.2.5,6.5v26.9c0,3.3,2.7,6.1,6.1,6.1h26.9c3.3,0,6.1-2.7,6.1-6.1V6.5c0-3.3-2.7-6.1-6.1-6.1ZM33.5,26.1c0,1.4-.3,2.4-.6,3.3-.3.9-.8,1.6-1.6,2.4s-1.6,1.3-2.4,1.6c-.9.3-1.9.6-3.3.6-1.5,0-2,0-5.6,0h-5.6c-1.4,0-2.4-.3-3.3-.6-.9-.3-1.6-.8-2.4-1.6s-1.3-1.6-1.6-2.4c-.3-.9-.6-1.9-.6-3.3,0-1.5,0-2,0-5.6v-5.6c0-1.4.3-2.4.6-3.3.3-.9.8-1.6,1.6-2.4s1.6-1.3,2.4-1.6c.9-.3,1.9-.6,3.3-.6,1.5,0,2,0,5.6,0,3.8,0,4.1,0,5.6,0,1.4,0,2.4.3,3.3.6.9.3,1.6.8,2.4,1.6s1.3,1.6,1.6,2.4c.3.9.6,1.9.6,3.3,0,1.5,0,2,0,5.6,0,3.8,0,4.1,0,5.6Z"/>
      </g>
    </g>
  </g>
</svg>