<?xml version="1.0" encoding="UTF-8"?>
<svg xmlns="http://www.w3.org/2000/svg" version="1.1" viewBox="0 0 40 40">
  <defs>
    <style>
      .cls-1 {
        fill: #fff;
      }
    </style>
  </defs>
  <!-- Generator: Adobe Illustrator 28.7.1, SVG Export Plug-In . SVG Version: 1.2.0 Build 142)  -->
  <g>
    <g id="Vrstva_1">
      <path class="cls-1" d="M33.4.4H6.5C3.2.4.5,3.2.5,6.5v26.9c0,3.3,2.7,6.1,6.1,6.1h26.9c3.3,0,6.1-2.7,6.1-6.1V6.5c0-3.3-2.7-6.1-6.1-6.1ZM12.5,31.8h-5.2V14.5h5.2v17.3ZM9.9,11.7c-1.8,0-3.2-1.4-3.2-3.2s1.4-3.2,3.2-3.2,3.2,1.4,3.2,3.2-1.4,3.2-3.2,3.2ZM33.3,31.7h-5.2v-8.6c0-2.3-.5-4.3-3.1-4.3s-3.9,1.7-3.9,4.7v8.3h-5.2V14.4h4.9v2.5c.8-1.3,3-2.7,5.7-2.7h0c5.3,0,6.7,2.8,6.7,7.9v9.5Z"/>
    </g>
  </g>
</svg>