<?xml version="1.0" encoding="UTF-8"?>
<svg xmlns="http://www.w3.org/2000/svg" version="1.1" viewBox="0 0 40 40">
  <defs>
    <style>
      .cls-1 {
        fill: #fff;
      }
    </style>
  </defs>
  <!-- Generator: Adobe Illustrator 28.7.1, SVG Export Plug-In . SVG Version: 1.2.0 Build 142)  -->
  <g>
    <g id="Vrstva_1">
      <g>
        <g>
          <path class="cls-1" d="M13.3,10.4c0,1.7-1.4,3.1-3.1,3.1-4.1,0-4-6,0-6.1,1.7,0,3.1,1.4,3.1,3.1Z"/>
          <path class="cls-1" d="M10.2,14c-2.5,0-3.6-1.9-3.6-3.6,0-1.8,1.2-3.6,3.5-3.6h0c1,0,1.9.4,2.6,1.1.7.7,1.1,1.6,1.1,2.5,0,2-1.6,3.6-3.6,3.6ZM10.2,7.9h0c-1.7,0-2.5,1.4-2.5,2.6,0,1.2.8,2.5,2.5,2.5,1.4,0,2.6-1.1,2.6-2.5h0c0-.7-.3-1.3-.7-1.8-.5-.5-1.1-.8-1.8-.8Z"/>
        </g>
        <g>
          <path class="cls-1" d="M12.9,32.6c0,.4-.2.5-.5.5-1.4,0-2.8,0-4.2,0-.4,0-.5-.2-.5-.6,0-5.3,0-10.7,0-16,0-.7,0-.7.6-.7,1.4,0,2.8,0,4.2,0,.4,0,.5.1.5.5,0,5.4,0,10.8,0,16.2Z"/>
          <path class="cls-1" d="M8.1,33.7c-.2,0-.5,0-.8-.3-.3-.3-.3-.6-.3-.8,0-3.2,0-6.4,0-9.5,0-2.2,0-4.3,0-6.5,0-.9.2-1.2,1.2-1.2.5,0,.9,0,1.4,0,.9,0,1.8,0,2.8,0,.1,0,.5,0,.8.3.3.3.3.6.3.8,0,5.4,0,10.8,0,16.2h0c0,.1,0,.5-.3.8-.2.2-.6.3-.8.3-1.5,0-2.9,0-4.2,0,0,0,0,0,0,0ZM8.1,16.4s0,0,0,.1c0,2.2,0,4.3,0,6.5,0,3.2,0,6.4,0,9.5,0,0,0,0,0,0,1.3,0,2.7,0,4.3,0h0c0-5.4,0-10.8,0-16.2-.9,0-1.8,0-2.8,0-.5,0-.9,0-1.4,0,0,0,0,0-.1,0Z"/>
        </g>
        <g>
          <path class="cls-1" d="M33,27.6c0,1.6,0,3.3,0,4.9,0,.6,0,.6-.6.6-1.4,0-2.8,0-4.2,0-.5,0-.6,0-.6-.6,0-2.8,0-5.6,0-8.4s0-1.4-.2-2c-.3-1.2-1-1.9-2.1-2-2.8-.4-3.8,1.8-3.8,4.1,0,2.7,0,5.4,0,8.2q0,.7-.7.7c-1.3,0-2.7,0-4,0-.4,0-.5-.1-.5-.5,0-5.4,0-10.8,0-16.2,0-.4.2-.5.5-.5,1.3,0,2.7,0,4,0,.4,0,.5.1.5.5,0,.5,0,1,0,1.5,0,0,0,.2,0,.3,0,0,.2,0,.2-.1,1.7-2.7,5.3-3,7.9-2,1.2.5,2.1,1.4,2.6,2.6.6,1.4.7,2.8.8,4.2,0,1.6,0,3.2,0,4.7h0Z"/>
          <path class="cls-1" d="M16.8,33.7c-.2,0-.5,0-.8-.3-.3-.3-.3-.7-.3-.8,0-5.4,0-10.9,0-16.2,0-.1,0-.5.3-.8.2-.2.6-.3.8-.3,1.3,0,2.6,0,4,0,.1,0,.5,0,.8.3.2.2.3.4.3.8,0,.1,0,.3,0,.4,2-2.1,5.3-2.3,7.9-1.3,1.3.5,2.3,1.5,2.9,2.9.7,1.5.8,3.1.8,4.4,0,1.1,0,2.2,0,3.3,0,.3,0,.6,0,.9v.5s0,1.1,0,1.1c0,1.3,0,2.6,0,3.8,0,.9-.3,1.2-1.1,1.2-1.4,0-2.8,0-4.2,0-.8,0-1.1-.3-1.1-1.1,0-2.3,0-4.6,0-6.9v-1.5c0-.7,0-1.3-.2-1.9-.3-1-.8-1.5-1.7-1.6-.9-.1-1.7,0-2.2.5-.7.6-1,1.7-1,3.1,0,1.9,0,3.8,0,5.7,0,.8,0,1.7,0,2.5,0,1-.2,1.2-1.2,1.2h-1.2c-.9,0-1.9,0-2.8,0,0,0,0,0,0,0ZM16.8,16.4c0,5.3,0,10.7,0,16.2.9,0,1.9,0,2.8,0h1.2c0,0,.1,0,.2,0,0,0,0-.1,0-.2,0-.8,0-1.7,0-2.5,0-1.9,0-3.8,0-5.7,0-1.7.5-3.1,1.4-3.9.8-.7,1.8-1,3-.8,1.3.2,2.2,1,2.6,2.4.2.7.2,1.5.2,2.2v1.5c0,2.3,0,4.6,0,6.8h0s0,0,0,0c1.4,0,2.8,0,4.2,0,0,0,0,0,0,0,0,0,0,0,0,0,0-1.3,0-2.6,0-3.8v-1.1c0-.5,0-1,0-1.4,0-1.1,0-2.2,0-3.3,0-1.2-.1-2.7-.7-4-.5-1.1-1.3-1.9-2.3-2.3-2.5-.9-5.8-.6-7.3,1.8-.3.5-.6.4-.8.4-.1,0-.5-.2-.5-.7v-.3c0-.4,0-.8,0-1.2-1.4,0-2.8,0-4,0h0Z"/>
        </g>
      </g>
    </g>
  </g>
</svg>